<svg xmlns="http://www.w3.org/2000/svg" version="1.1" width="1000px" height="1000px" style="shape-rendering:geometricPrecision; text-rendering:geometricPrecision; image-rendering:optimizeQuality; fill-rule:evenodd; clip-rule:evenodd" xmlns:xlink="http://www.w3.org/1999/xlink">
<g><path style="opacity:0.726" fill="#140803" d="M 460.5,59.5 C 486.706,58.1807 513.039,58.1807 539.5,59.5C 538.848,60.7251 537.681,61.3917 536,61.5C 510.806,60.8476 485.639,60.1809 460.5,59.5 Z" data-index="0"></path></g>
<g><path style="opacity:0.991" fill="#4d2c17" d="M 460.5,59.5 C 485.639,60.1809 510.806,60.8476 536,61.5C 537.681,61.3917 538.848,60.7251 539.5,59.5C 541.587,60.5846 542.92,62.2512 543.5,64.5C 543.612,71.2686 542.945,77.9353 541.5,84.5C 540.167,85.8333 538.833,87.1667 537.5,88.5C 536.883,88.6107 536.383,88.944 536,89.5C 535.833,92 535.667,94.5 535.5,97C 535.525,99.9294 536.191,102.429 537.5,104.5C 537.779,121.196 538.612,137.863 540,154.5C 540.708,155.381 541.542,156.047 542.5,156.5C 542.395,163.545 543.895,170.211 547,176.5C 552.36,181.86 557.694,187.194 563,192.5C 566.891,197.944 569.391,203.944 570.5,210.5C 570.671,215.196 571.171,219.863 572,224.5C 572.423,278.343 572.59,332.01 572.5,385.5C 569.436,394.564 563.436,400.564 554.5,403.5C 551.006,402.665 547.34,402.665 543.5,403.5C 511.669,402.44 480.002,402.44 448.5,403.5C 447.791,404.404 446.791,404.737 445.5,404.5C 436.588,401.255 430.255,395.255 426.5,386.5C 426.937,381.639 426.437,376.972 425,372.5C 424.833,322.332 424.333,272.332 423.5,222.5C 424.988,212.864 428.155,203.864 433,195.5C 439.712,189.29 445.879,182.623 451.5,175.5C 455.746,173.697 457.912,170.364 458,165.5C 458.55,141.938 460.05,118.438 462.5,95C 462.333,92.1667 462.167,89.3333 462,86.5C 460.653,84.5339 459.153,84.2006 457.5,85.5C 456.167,84.8333 455.167,83.8333 454.5,82.5C 454.214,76.3381 454.547,70.0048 455.5,63.5C 456.585,61.4131 458.251,60.0798 460.5,59.5 Z" data-index="1"></path></g>
<g><path style="opacity:0.204" fill="#1c0802" d="M 543.5,64.5 C 546.71,69.4664 547.21,74.7998 545,80.5C 544.34,82.3237 543.173,83.657 541.5,84.5C 542.945,77.9353 543.612,71.2686 543.5,64.5 Z" data-index="2"></path></g>
<g><path style="opacity:0.377" fill="#180d0a" d="M 455.5,63.5 C 454.547,70.0048 454.214,76.3381 454.5,82.5C 453.888,79.2231 452.888,76.0565 451.5,73C 452.618,69.6289 453.951,66.4622 455.5,63.5 Z" data-index="3"></path></g>
<g><path style="opacity:0.281" fill="#231814" d="M 457.5,85.5 C 459.153,84.2006 460.653,84.5339 462,86.5C 462.167,89.3333 462.333,92.1667 462.5,95C 460.05,118.438 458.55,141.938 458,165.5C 457.912,170.364 455.746,173.697 451.5,175.5C 452.317,172.521 453.151,169.521 454,166.5C 455.324,141.953 457.157,117.453 459.5,93C 459.7,90.1345 459.033,87.6345 457.5,85.5 Z" data-index="4"></path></g>
<g><path style="opacity:0.871" fill="#d6d1cd" d="M 484.5,86.5 C 490.833,86.5 497.167,86.5 503.5,86.5C 497.69,87.4896 491.69,87.8229 485.5,87.5C 485.813,91.0419 485.479,94.3752 484.5,97.5C 484.5,93.8333 484.5,90.1667 484.5,86.5 Z" data-index="5"></path></g>
<g><path style="opacity: 1; visibility: visible;" fill="#fbf9f5" d="M 503.5,86.5 C 506.833,86.5 510.167,86.5 513.5,86.5C 513.721,104.363 514.721,122.03 516.5,139.5C 516.288,149.709 516.954,159.709 518.5,169.5C 518.337,171.857 518.503,174.19 519,176.5C 519.383,177.056 519.883,177.389 520.5,177.5C 520.992,179.819 521.992,181.819 523.5,183.5C 524.529,185.517 525.529,187.517 526.5,189.5C 527.757,192.427 529.757,194.761 532.5,196.5C 536.167,198.833 539.167,201.833 541.5,205.5C 542.08,207.749 543.413,209.415 545.5,210.5C 545.5,210.833 545.5,211.167 545.5,211.5C 546.751,214.132 547.751,216.799 548.5,219.5C 550.011,222.544 550.678,225.878 550.5,229.5C 550.815,278.857 550.481,328.19 549.5,377.5C 547.841,380.833 545.175,382.5 541.5,382.5C 512.167,382.5 482.833,382.5 453.5,382.5C 451.5,381.167 449.833,379.5 448.5,377.5C 447.534,329.515 447.201,281.515 447.5,233.5C 447.5,230.167 447.5,226.833 447.5,223.5C 447.523,221.073 448.023,218.74 449,216.5C 451.853,212.765 454.687,209.098 457.5,205.5C 459.914,204.089 461.581,202.089 462.5,199.5C 462.833,198.5 463.5,197.833 464.5,197.5C 466.587,196.415 467.92,194.749 468.5,192.5C 471.676,188.807 474.343,184.807 476.5,180.5C 478.04,178.162 478.706,175.495 478.5,172.5C 478.5,172.167 478.5,171.833 478.5,171.5C 480.047,160.036 480.714,148.369 480.5,136.5C 481.301,134.958 481.634,133.292 481.5,131.5C 483.117,127.46 483.95,123.127 484,118.5C 484.5,111.508 484.666,104.508 484.5,97.5C 485.479,94.3752 485.813,91.0419 485.5,87.5C 491.69,87.8229 497.69,87.4896 503.5,86.5 Z" data-index="6"></path></g>
<g><path style="opacity:0.982" fill="#918d8a" d="M 484.5,86.5 C 494.319,85.506 504.319,85.1726 514.5,85.5C 514.5,86.8333 514.5,88.1667 514.5,89.5C 515.388,106.157 516.055,122.824 516.5,139.5C 514.721,122.03 513.721,104.363 513.5,86.5C 510.167,86.5 506.833,86.5 503.5,86.5C 497.167,86.5 490.833,86.5 484.5,86.5 Z" data-index="7"></path></g>
<g><path style="opacity:0.768" fill="#31190d" d="M 537.5,88.5 C 537.5,93.8333 537.5,99.1667 537.5,104.5C 536.191,102.429 535.525,99.9294 535.5,97C 535.667,94.5 535.833,92 536,89.5C 536.383,88.944 536.883,88.6107 537.5,88.5 Z" data-index="8"></path></g>
<g><path style="opacity:0.894" fill="#615753" d="M 484.5,86.5 C 484.5,90.1667 484.5,93.8333 484.5,97.5C 483.833,101.833 483.167,106.167 482.5,110.5C 482.246,102.277 482.912,94.277 484.5,86.5 Z" data-index="9"></path></g>
<g><path style="opacity:0.996" fill="#dad6d2" d="M 484.5,97.5 C 484.666,104.508 484.5,111.508 484,118.5C 483.95,123.127 483.117,127.46 481.5,131.5C 482.089,124.515 482.422,117.515 482.5,110.5C 483.167,106.167 483.833,101.833 484.5,97.5 Z" data-index="10"></path></g>
<g><path style="opacity:0.476" fill="#1a0f0a" d="M 537.5,104.5 C 539.011,106.476 539.844,108.809 540,111.5C 540.9,126.506 541.733,141.506 542.5,156.5C 541.542,156.047 540.708,155.381 540,154.5C 538.612,137.863 537.779,121.196 537.5,104.5 Z" data-index="11"></path></g>
<g><path style="opacity:0.875" fill="#2c201b" d="M 514.5,89.5 C 515.222,89.9175 515.722,90.5842 516,91.5C 517.299,112.818 518.133,134.151 518.5,155.5C 517.833,150.167 517.167,144.833 516.5,139.5C 516.055,122.824 515.388,106.157 514.5,89.5 Z" data-index="12"></path></g>
<g><path style="opacity: 0.961; visibility: visible;" fill="#b6b4b1" d="M 516.5,139.5 C 517.167,144.833 517.833,150.167 518.5,155.5C 518.5,155.833 518.5,156.167 518.5,156.5C 518.5,160.833 518.5,165.167 518.5,169.5C 516.954,159.709 516.288,149.709 516.5,139.5 Z" data-index="13"></path></g>
<g><path style="opacity:0.843" fill="#231b19" d="M 478.5,163.5 C 478.5,166.167 478.5,168.833 478.5,171.5C 478.5,171.833 478.5,172.167 478.5,172.5C 477.833,173.833 477.167,175.167 476.5,176.5C 476.77,171.972 477.437,167.639 478.5,163.5 Z" data-index="14"></path></g>
<g><path style="opacity:0.863" fill="#88817d" d="M 480.5,136.5 C 480.714,148.369 480.047,160.036 478.5,171.5C 478.5,168.833 478.5,166.167 478.5,163.5C 478.561,154.306 479.228,145.306 480.5,136.5 Z" data-index="15"></path></g>
<g><path style="opacity:0.86" fill="#3c2e27" d="M 518.5,156.5 C 520.771,165.238 522.437,174.238 523.5,183.5C 521.992,181.819 520.992,179.819 520.5,177.5C 520.037,174.67 519.371,172.003 518.5,169.5C 518.5,165.167 518.5,160.833 518.5,156.5 Z" data-index="16"></path></g>
<g><path style="opacity: 0.957; visibility: visible;" fill="#b7b4b1" d="M 518.5,169.5 C 519.371,172.003 520.037,174.67 520.5,177.5C 519.883,177.389 519.383,177.056 519,176.5C 518.503,174.19 518.337,171.857 518.5,169.5 Z" data-index="17"></path></g>
<g><path style="opacity:0.839" fill="#95928f" d="M 478.5,172.5 C 478.706,175.495 478.04,178.162 476.5,180.5C 476.5,179.167 476.5,177.833 476.5,176.5C 477.167,175.167 477.833,173.833 478.5,172.5 Z" data-index="18"></path></g>
<g><path style="opacity:0.878" fill="#afa8a2" d="M 526.5,189.5 C 529.243,191.239 531.243,193.573 532.5,196.5C 529.757,194.761 527.757,192.427 526.5,189.5 Z" data-index="19"></path></g>
<g><path style="opacity:0.882" fill="#bab1a9" d="M 468.5,192.5 C 467.92,194.749 466.587,196.415 464.5,197.5C 465.08,195.251 466.413,193.585 468.5,192.5 Z" data-index="20"></path></g>
<g><path style="opacity:0.89" fill="#bdb5ae" d="M 462.5,199.5 C 461.581,202.089 459.914,204.089 457.5,205.5C 458.419,202.911 460.086,200.911 462.5,199.5 Z" data-index="21"></path></g>
<g><path style="opacity:0.878" fill="#bbb2ab" d="M 541.5,205.5 C 543.587,206.585 544.92,208.251 545.5,210.5C 543.413,209.415 542.08,207.749 541.5,205.5 Z" data-index="22"></path></g>
<g><path style="opacity:0.125" fill="#060201" d="M 570.5,210.5 C 572.511,212.667 573.678,215.334 574,218.5C 575.783,272.835 575.783,327.169 574,381.5C 573.79,383.058 573.29,384.391 572.5,385.5C 572.59,332.01 572.423,278.343 572,224.5C 571.171,219.863 570.671,215.196 570.5,210.5 Z" data-index="23"></path></g>
<g><path style="opacity: 0.827; visibility: visible;" fill="#beb9b4" d="M 545.5,211.5 C 547.727,212.401 548.727,214.067 548.5,216.5C 548.5,217.5 548.5,218.5 548.5,219.5C 547.751,216.799 546.751,214.132 545.5,211.5 Z" data-index="24"></path></g>
<g><path style="opacity:0.078" fill="#060301" d="M 423.5,222.5 C 424.333,272.332 424.833,322.332 425,372.5C 426.437,376.972 426.937,381.639 426.5,386.5C 425.379,384.259 424.213,381.925 423,379.5C 422.168,326.998 422.335,274.665 423.5,222.5 Z" data-index="25"></path></g>
<g><path style="opacity:1" fill="#b88254" d="M 469.5,350.5 C 469.19,310.143 469.523,269.809 470.5,229.5C 472.239,226.63 474.905,225.297 478.5,225.5C 482.527,225.346 485.527,227.013 487.5,230.5C 488.833,271.167 488.833,311.833 487.5,352.5C 482.039,360.015 476.206,360.349 470,353.5C 469.517,352.552 469.351,351.552 469.5,350.5 Z" data-index="26"></path></g>
<g><path style="opacity:0.975" fill="#442a1b" d="M 447.5,223.5 C 447.5,226.833 447.5,230.167 447.5,233.5C 446.184,280.687 446.184,328.02 447.5,375.5C 446.883,375.389 446.383,375.056 446,374.5C 445.833,349.333 445.667,324.167 445.5,299C 445.5,273.491 446.167,248.324 447.5,223.5 Z" data-index="27"></path></g>
<g><path style="opacity:0.729" fill="#ceb39f" d="M 470.5,229.5 C 469.523,269.809 469.19,310.143 469.5,350.5C 468.335,311.335 468.169,272.002 469,232.5C 469.232,231.263 469.732,230.263 470.5,229.5 Z" data-index="28"></path></g>
<g><path style="opacity:0.952" fill="#8e8b89" d="M 447.5,233.5 C 447.201,281.515 447.534,329.515 448.5,377.5C 447.662,377.158 447.328,376.492 447.5,375.5C 446.184,328.02 446.184,280.687 447.5,233.5 Z" data-index="29"></path></g>
<g><path style="opacity:0.893" fill="#c8c6c2" d="M 550.5,229.5 C 551.499,276.33 551.832,323.33 551.5,370.5C 551.829,373.228 551.163,375.562 549.5,377.5C 550.481,328.19 550.815,278.857 550.5,229.5 Z" data-index="30"></path></g>
<g><path style="opacity:0.836" fill="#5c524e" d="M 548.5,216.5 C 550.129,218.858 551.295,221.524 552,224.5C 552.832,273.335 552.665,322.002 551.5,370.5C 551.832,323.33 551.499,276.33 550.5,229.5C 550.678,225.878 550.011,222.544 548.5,219.5C 548.5,218.5 548.5,217.5 548.5,216.5 Z" data-index="31"></path></g>
<g><path style="opacity:0.952" fill="#362217" d="M 453.5,382.5 C 482.833,382.5 512.167,382.5 541.5,382.5C 541.389,383.117 541.056,383.617 540.5,384C 512.5,384.667 484.5,384.667 456.5,384C 455.263,383.768 454.263,383.268 453.5,382.5 Z" data-index="32"></path></g>
<g><path style="opacity:0.827" fill="#402212" d="M 448.5,403.5 C 480.002,402.44 511.669,402.44 543.5,403.5C 512.003,404.082 480.336,404.082 448.5,403.5 Z" data-index="33"></path></g>
<g><path style="opacity:0.041" fill="#1a0603" d="M 554.5,403.5 C 552.046,404.621 549.379,405.454 546.5,406C 514.167,406.667 481.833,406.667 449.5,406C 447.942,405.79 446.609,405.29 445.5,404.5C 446.791,404.737 447.791,404.404 448.5,403.5C 480.336,404.082 512.003,404.082 543.5,403.5C 547.34,402.665 551.006,402.665 554.5,403.5 Z" data-index="34"></path></g>
<g><path style="opacity:0.575" fill="#160903" d="M 246.5,410.5 C 416.001,410.167 585.334,410.5 754.5,411.5C 585.54,412.497 416.54,412.831 247.5,412.5C 246.662,412.158 246.328,411.492 246.5,410.5 Z" data-index="35"></path></g>
<g><path style="opacity:0.966" fill="#3e2210" d="M 754.5,411.5 C 754.782,412.778 755.449,413.778 756.5,414.5C 586.694,413.837 417.027,413.171 247.5,412.5C 416.54,412.831 585.54,412.497 754.5,411.5 Z" data-index="36"></path></g>
<g><path style="opacity: 1;" fill="#3d2115" d="M 754.5,411.5 C 759.737,412.235 762.904,415.235 764,420.5C 764.667,535.167 764.667,649.833 764,764.5C 763.685,766.586 763.185,768.586 762.5,770.5C 761.768,769.192 760.934,767.858 760,766.5C 759.5,707.834 759.333,649.168 759.5,590.5C 760.568,533.838 760.734,477.172 760,420.5C 759.434,418.277 758.6,416.277 757.5,414.5C 757.167,414.5 756.833,414.5 756.5,414.5C 755.449,413.778 754.782,412.778 754.5,411.5 Z" data-index="37"></path></g>
<g><path style="opacity: 1;" fill="#4f2d17" d="M 246.5,410.5 C 246.328,411.492 246.662,412.158 247.5,412.5C 417.027,413.171 586.694,413.837 756.5,414.5C 756.833,414.5 757.167,414.5 757.5,414.5C 757.523,416.927 758.023,419.26 759,421.5C 759.24,478.003 759.407,534.336 759.5,590.5C 759.333,649.168 759.5,707.834 760,766.5C 760.934,767.858 761.768,769.192 762.5,770.5C 760.948,773.112 758.614,774.445 755.5,774.5C 583.173,773.832 410.84,773.165 238.5,772.5C 237.833,772.5 237.5,772.167 237.5,771.5C 236.17,710.668 236.17,649.834 237.5,589C 237.056,532.333 236.389,475.833 235.5,419.5C 237.028,413.979 240.694,410.979 246.5,410.5 Z" data-index="38"></path></g>
<g><path style="opacity:0.969" fill="#b9b7b2" d="M 332.5,435.5 C 443.332,434.501 554.332,434.167 665.5,434.5C 665.5,437.833 665.5,441.167 665.5,444.5C 665.167,444.5 664.833,444.5 664.5,444.5C 664.5,441.5 664.5,438.5 664.5,435.5C 553.833,435.5 443.167,435.5 332.5,435.5 Z" data-index="39"></path></g>
<g><path style="opacity:0.998" fill="#f5f0ea" d="M 332.5,435.5 C 443.167,435.5 553.833,435.5 664.5,435.5C 664.5,438.5 664.5,441.5 664.5,444.5C 554.001,445.499 443.335,445.833 332.5,445.5C 332.5,442.167 332.5,438.833 332.5,435.5 Z" data-index="40"></path></g>
<g><path style="opacity: 1;" fill="#fcfaf6" d="M 739.5,435.5 C 740.161,541.045 739.494,646.378 737.5,751.5C 721.167,751.5 704.833,751.5 688.5,751.5C 688.5,725.833 688.5,700.167 688.5,674.5C 688.5,594.833 688.5,515.167 688.5,435.5C 705.5,435.5 722.5,435.5 739.5,435.5 Z" data-index="41"></path></g>
<g><path style="opacity:0.999" fill="#b57f50" d="M 664.5,444.5 C 664.833,444.5 665.167,444.5 665.5,444.5C 665.65,453.857 665.317,463.191 664.5,472.5C 659.473,472.503 654.473,472.836 649.5,473.5C 629.169,472.833 608.669,472.5 588,472.5C 567.156,472.5 546.656,473.167 526.5,474.5C 525.62,476.137 524.954,477.97 524.5,480C 524.57,480.765 524.903,481.265 525.5,481.5C 525.833,482.5 526.5,483.167 527.5,483.5C 572.664,484.499 617.997,484.832 663.5,484.5C 663.5,489.833 663.5,495.167 663.5,500.5C 657.974,500.179 652.64,500.512 647.5,501.5C 542.833,501.667 438.166,501.5 333.5,501C 332.525,495.259 332.192,489.425 332.5,483.5C 355.169,483.667 377.836,483.5 400.5,483C 401.833,480 401.833,477 400.5,474C 386.504,473.5 372.504,473.333 358.5,473.5C 349.833,473.5 341.167,473.5 332.5,473.5C 332.5,464.167 332.5,454.833 332.5,445.5C 443.335,445.833 554.001,445.499 664.5,444.5 Z" data-index="42"></path></g>
<g><path style="opacity:0.894" fill="#31241f" d="M 719.5,458.5 C 715.766,458.323 712.099,458.656 708.5,459.5C 709.898,457.467 711.898,456.467 714.5,456.5C 716.557,456.436 718.223,457.102 719.5,458.5 Z" data-index="43"></path></g>
<g><path style="opacity:0.998" fill="#4e301f" d="M 719.5,458.5 C 723.947,461.557 724.78,465.557 722,470.5C 715.909,476.202 710.576,475.535 706,468.5C 705.333,466.167 705.333,463.833 706,461.5C 706.708,460.619 707.542,459.953 708.5,459.5C 712.099,458.656 715.766,458.323 719.5,458.5 Z" data-index="44"></path></g>
<g><path style="opacity:0.991" fill="#452615" d="M 757.5,414.5 C 758.6,416.277 759.434,418.277 760,420.5C 760.734,477.172 760.568,533.838 759.5,590.5C 759.407,534.336 759.24,478.003 759,421.5C 758.023,419.26 757.523,416.927 757.5,414.5 Z" data-index="45"></path></g>
<g><path style="opacity:0.873" fill="#7c5437" d="M 649.5,473.5 C 608.428,473.173 567.428,473.506 526.5,474.5C 546.656,473.167 567.156,472.5 588,472.5C 608.669,472.5 629.169,472.833 649.5,473.5 Z" data-index="46"></path></g>
<g><path style="opacity:0.99" fill="#5c351b" d="M 358.5,473.5 C 372.504,473.333 386.504,473.5 400.5,474C 401.833,477 401.833,480 400.5,483C 377.836,483.5 355.169,483.667 332.5,483.5C 332.02,480.315 332.686,477.481 334.5,475C 342.677,474.829 350.677,474.329 358.5,473.5 Z" data-index="47"></path></g>
<g><path style="opacity:0.993" fill="#5a3319" d="M 664.5,472.5 C 663.048,473.302 661.382,473.802 659.5,474C 665.14,473.629 666.807,475.963 664.5,481C 634.997,481.168 605.664,481.668 576.5,482.5C 559.453,482.805 542.453,482.472 525.5,481.5C 524.903,481.265 524.57,480.765 524.5,480C 524.954,477.97 525.62,476.137 526.5,474.5C 567.428,473.506 608.428,473.173 649.5,473.5C 654.473,472.836 659.473,472.503 664.5,472.5 Z" data-index="48"></path></g>
<g><path style="opacity:0.895" fill="#704729" d="M 525.5,481.5 C 542.453,482.472 559.453,482.805 576.5,482.5C 606.005,482.169 635.338,482.502 664.5,483.5C 618.833,483.5 573.167,483.5 527.5,483.5C 526.5,483.167 525.833,482.5 525.5,481.5 Z" data-index="49"></path></g>
<g><path style="opacity:0.978" fill="#a47146" d="M 527.5,483.5 C 573.167,483.5 618.833,483.5 664.5,483.5C 665.664,489.349 665.664,495.349 664.5,501.5C 658.833,501.5 653.167,501.5 647.5,501.5C 652.64,500.512 657.974,500.179 663.5,500.5C 663.5,495.167 663.5,489.833 663.5,484.5C 617.997,484.832 572.664,484.499 527.5,483.5 Z" data-index="50"></path></g>
<g><path style="opacity:0.97" fill="#b2b0ad" d="M 739.5,434.5 C 739.5,434.833 739.5,435.167 739.5,435.5C 722.5,435.5 705.5,435.5 688.5,435.5C 688.5,515.167 688.5,594.833 688.5,674.5C 688.167,674.5 687.833,674.5 687.5,674.5C 687.5,594.833 687.5,515.167 687.5,435.5C 704.659,434.503 721.992,434.17 739.5,434.5 Z" data-index="51"></path></g>
<g><path style="opacity:0.922" fill="#cdc9c5" d="M 310.5,435.5 C 310.5,540.5 310.5,645.5 310.5,750.5C 310.167,751.5 309.5,752.167 308.5,752.5C 291.833,752.5 275.167,752.5 258.5,752.5C 258.5,646.5 258.5,540.5 258.5,434.5C 276.008,434.17 293.341,434.503 310.5,435.5 Z" data-index="52"></path></g>
<g><path style="opacity:1" fill="#fcfaf6" d="M 259.5,435.5 C 275.833,435.5 292.167,435.5 308.5,435.5C 308.5,540.5 308.5,645.5 308.5,750.5C 292.167,750.5 275.833,750.5 259.5,750.5C 259.5,645.5 259.5,540.5 259.5,435.5 Z" data-index="53"></path></g>
<g><path style="opacity:0.751" fill="#6d5c53" d="M 289.5,458.5 C 290.117,458.611 290.617,458.944 291,459.5C 291.81,463.358 291.643,467.024 290.5,470.5C 290.693,466.434 290.36,462.434 289.5,458.5 Z" data-index="54"></path></g>
<g><path style="opacity:0.971" fill="#6f5649" d="M 277.5,459.5 C 276.676,462.764 276.342,466.098 276.5,469.5C 273.883,465.939 274.216,462.605 277.5,459.5 Z" data-index="55"></path></g>
<g><path style="opacity:0.998" fill="#53311c" d="M 289.5,458.5 C 290.36,462.434 290.693,466.434 290.5,470.5C 290.389,471.117 290.056,471.617 289.5,472C 285.833,472.667 282.167,472.667 278.5,472C 277.619,471.292 276.953,470.458 276.5,469.5C 276.342,466.098 276.676,462.764 277.5,459.5C 281.116,457.158 285.116,456.825 289.5,458.5 Z" data-index="56"></path></g>
<g><path style="opacity:0.849" fill="#88827f" d="M 664.5,525.5 C 554.167,525.5 443.833,525.5 333.5,525.5C 333.5,533.5 333.5,541.5 333.5,549.5C 332.508,541.684 332.174,533.684 332.5,525.5C 443.167,524.167 553.833,524.167 664.5,525.5 Z" data-index="57"></path></g>
<g><path style="opacity:1" fill="#d9d7d3" d="M 664.5,525.5 C 665.833,533.167 665.833,540.833 664.5,548.5C 664.5,549.167 664.167,549.5 663.5,549.5C 553.373,550.83 443.373,550.83 333.5,549.5C 333.5,541.5 333.5,533.5 333.5,525.5C 443.833,525.5 554.167,525.5 664.5,525.5 Z" data-index="58"></path></g>
<g><path style="opacity: 1; visibility: visible;" fill="#fdfbf7" d="M 664.5,548.5 C 554.5,548.5 444.5,548.5 334.5,548.5C 334.5,541.167 334.5,533.833 334.5,526.5C 444.5,526.5 554.5,526.5 664.5,526.5C 664.5,533.833 664.5,541.167 664.5,548.5 Z" data-index="59"></path></g>
<g><path style="opacity:0.989" fill="#3c261f" d="M 332.5,525.5 C 332.174,533.684 332.508,541.684 333.5,549.5C 443.373,550.83 553.373,550.83 663.5,549.5C 663.389,550.117 663.056,550.617 662.5,551C 552.5,551.667 442.5,551.667 332.5,551C 331.172,542.402 331.172,533.902 332.5,525.5 Z" data-index="60"></path></g>
<g><path style="opacity:0.961" fill="#3a261d" d="M 687.5,435.5 C 687.5,515.167 687.5,594.833 687.5,674.5C 687.5,700.167 687.5,725.833 687.5,751.5C 686.71,750.391 686.21,749.058 686,747.5C 685.333,647.167 685.333,546.833 686,446.5C 686.177,442.644 686.677,438.977 687.5,435.5 Z" data-index="61"></path></g>
<g><path style="opacity:0.498" fill="#1e0903" d="M 235.5,419.5 C 236.389,475.833 237.056,532.333 237.5,589C 236.17,649.834 236.17,710.668 237.5,771.5C 236.21,770.942 235.377,769.942 235,768.5C 234.167,651.999 234.334,535.666 235.5,419.5 Z" data-index="62"></path></g>
<g><path style="opacity:0.931" fill="#5f5c59" d="M 717.5,568.5 C 715.097,568.448 712.764,568.781 710.5,569.5C 711.312,568.007 712.645,567.34 714.5,567.5C 715.726,567.52 716.726,567.853 717.5,568.5 Z" data-index="63"></path></g>
<g><path style="opacity:0.722" fill="#928a86" d="M 288.5,569.5 C 285.482,569.335 282.482,569.502 279.5,570C 278.944,570.383 278.611,570.883 278.5,571.5C 278.167,571.5 277.833,571.5 277.5,571.5C 277.414,570.504 277.748,569.671 278.5,569C 282.027,568.192 285.36,568.359 288.5,569.5 Z" data-index="64"></path></g>
<g><path style="opacity:0.957" fill="#dad9d6" d="M 665.5,578.5 C 665.167,578.5 664.833,578.5 664.5,578.5C 664.806,575.615 664.473,572.948 663.5,570.5C 553.5,570.5 443.5,570.5 333.5,570.5C 333.5,572.833 333.5,575.167 333.5,577.5C 333.5,577.833 333.5,578.167 333.5,578.5C 333.167,578.5 332.833,578.5 332.5,578.5C 332.5,575.5 332.5,572.5 332.5,569.5C 443.5,569.5 554.5,569.5 665.5,569.5C 665.5,572.5 665.5,575.5 665.5,578.5 Z" data-index="65"></path></g>
<g><path style="opacity:0.834" fill="#281a16" d="M 717.5,568.5 C 718.492,568.328 719.158,568.662 719.5,569.5C 716.5,570.833 713.5,570.833 710.5,569.5C 712.764,568.781 715.097,568.448 717.5,568.5 Z" data-index="66"></path></g>
<g><path style="opacity:0.995" fill="#4f2e1b" d="M 288.5,569.5 C 291.709,570.903 293.043,573.403 292.5,577C 293.081,580.571 291.748,583.071 288.5,584.5C 285.375,583.521 282.042,583.187 278.5,583.5C 278.5,579.5 278.5,575.5 278.5,571.5C 278.611,570.883 278.944,570.383 279.5,570C 282.482,569.502 285.482,569.335 288.5,569.5 Z" data-index="67"></path></g>
<g><path style="opacity:0.985" fill="#3c1f11" d="M 310.5,435.5 C 311.268,436.263 311.768,437.263 312,438.5C 312.667,541.167 312.667,643.833 312,746.5C 311.79,748.058 311.29,749.391 310.5,750.5C 310.5,645.5 310.5,540.5 310.5,435.5 Z" data-index="68"></path></g>
<g><path style="opacity: 0.998; visibility: visible;" fill="#fdfbf7" d="M 663.5,570.5 C 663.5,572.833 663.5,575.167 663.5,577.5C 553.5,577.5 443.5,577.5 333.5,577.5C 333.5,575.167 333.5,572.833 333.5,570.5C 443.5,570.5 553.5,570.5 663.5,570.5 Z" data-index="69"></path></g>
<g><path style="opacity:0.941" fill="#452d22" d="M 277.5,571.5 C 277.833,571.5 278.167,571.5 278.5,571.5C 278.5,575.5 278.5,579.5 278.5,583.5C 282.042,583.187 285.375,583.521 288.5,584.5C 277.705,587.369 273.371,583.369 275.5,572.5C 275.957,571.702 276.624,571.369 277.5,571.5 Z" data-index="70"></path></g>
<g><path style="opacity:1" fill="#502f1b" d="M 710.5,569.5 C 713.5,570.833 716.5,570.833 719.5,569.5C 721.587,570.585 722.92,572.251 723.5,574.5C 723.723,579.052 722.056,582.719 718.5,585.5C 715.833,585.5 713.167,585.5 710.5,585.5C 710.167,584.5 709.5,583.833 708.5,583.5C 706.732,580.838 706.065,577.838 706.5,574.5C 707.136,572.205 708.469,570.539 710.5,569.5 Z" data-index="71"></path></g>
<g><path style="opacity: 0.993; visibility: visible;" fill="#f0ebe6" d="M 663.5,570.5 C 664.473,572.948 664.806,575.615 664.5,578.5C 554.167,578.5 443.833,578.5 333.5,578.5C 333.5,578.167 333.5,577.833 333.5,577.5C 443.5,577.5 553.5,577.5 663.5,577.5C 663.5,575.167 663.5,572.833 663.5,570.5 Z" data-index="72"></path></g>
<g><path style="opacity: 1;" fill="#b67f51" d="M 332.5,578.5 C 332.833,578.5 333.167,578.5 333.5,578.5C 443.833,578.5 554.167,578.5 664.5,578.5C 664.833,578.5 665.167,578.5 665.5,578.5C 665.825,586.352 665.492,594.018 664.5,601.5C 640.831,601.333 617.164,601.5 593.5,602C 588.262,605.529 588.262,608.863 593.5,612C 617.164,612.5 640.831,612.667 664.5,612.5C 665.458,618.744 665.791,625.077 665.5,631.5C 615.5,631.5 565.5,631.5 515.5,631.5C 501.516,630.167 487.183,629.501 472.5,629.5C 426.331,629.866 380.331,630.533 334.5,631.5C 333.184,628.913 332.517,625.913 332.5,622.5C 332.502,619.314 332.835,616.314 333.5,613.5C 369.429,612.673 405.429,612.173 441.5,612C 447.093,605.82 445.427,602.486 436.5,602C 401.835,601.5 367.168,601.333 332.5,601.5C 332.5,593.833 332.5,586.167 332.5,578.5 Z" data-index="73"></path></g>
<g><path style="opacity:0.918" fill="#ada29a" d="M 706.5,574.5 C 706.065,577.838 706.732,580.838 708.5,583.5C 707.504,583.586 706.671,583.252 706,582.5C 705.199,579.633 705.366,576.966 706.5,574.5 Z" data-index="74"></path></g>
<g><path style="opacity:0.984" fill="#c8c3be" d="M 723.5,574.5 C 724.742,577.74 724.576,581.074 723,584.5C 721.644,585.38 720.144,585.714 718.5,585.5C 722.056,582.719 723.723,579.052 723.5,574.5 Z" data-index="75"></path></g>
<g><path style="opacity:0.98" fill="#cbc3bd" d="M 710.5,585.5 C 713.167,585.5 715.833,585.5 718.5,585.5C 717.223,586.898 715.557,587.564 713.5,587.5C 711.97,587.36 710.97,586.693 710.5,585.5 Z" data-index="76"></path></g>
<g><path style="opacity:0.985" fill="#5d361b" d="M 332.5,601.5 C 367.168,601.333 401.835,601.5 436.5,602C 445.427,602.486 447.093,605.82 441.5,612C 405.429,612.173 369.429,612.673 333.5,613.5C 332.74,612.107 332.074,610.607 331.5,609C 331.943,607.175 332.277,605.342 332.5,603.5C 352.503,603.667 372.503,603.5 392.5,603C 372.329,602.832 352.329,602.332 332.5,601.5 Z" data-index="77"></path></g>
<g><path style="opacity:0.995" fill="#5d361b" d="M 664.5,601.5 C 665.22,604.808 664.554,607.975 662.5,611C 663.416,611.278 664.082,611.778 664.5,612.5C 640.831,612.667 617.164,612.5 593.5,612C 588.262,608.863 588.262,605.529 593.5,602C 617.164,601.5 640.831,601.333 664.5,601.5 Z" data-index="78"></path></g>
<g><path style="opacity:0.935" fill="#bb885e" d="M 515.5,631.5 C 455.167,631.5 394.833,631.5 334.5,631.5C 380.331,630.533 426.331,629.866 472.5,629.5C 487.183,629.501 501.516,630.167 515.5,631.5 Z" data-index="79"></path></g>
<g><path style="opacity:0.988" fill="#49240f" d="M 334.5,633.5 C 443.334,632.168 552.334,632.168 661.5,633.5C 552.432,634.831 443.432,634.831 334.5,633.5 Z" data-index="80"></path></g>
<g><path style="opacity: 1;" fill="#a7a5a3" d="M 739.5,434.5 C 740.499,539.999 740.833,645.665 740.5,751.5C 739.5,751.5 738.5,751.5 737.5,751.5C 739.494,646.378 740.161,541.045 739.5,435.5C 739.5,435.167 739.5,434.833 739.5,434.5 Z" data-index="81"></path></g>
<g><path style="opacity:0.944" fill="#665f5d" d="M 332.5,654.5 C 387.832,653.833 443.332,653.5 499,653.5C 554.837,653.5 610.337,654.167 665.5,655.5C 665.167,655.5 664.833,655.5 664.5,655.5C 554.001,654.501 443.335,654.167 332.5,654.5 Z" data-index="82"></path></g>
<g><path style="opacity:0.98" fill="#d1cfcc" d="M 332.5,654.5 C 443.335,654.167 554.001,654.501 664.5,655.5C 588.167,655.5 511.833,655.5 435.5,655.5C 401.5,655.5 367.5,655.5 333.5,655.5C 333.5,662.167 333.5,668.833 333.5,675.5C 333.167,675.5 332.833,675.5 332.5,675.5C 332.5,668.5 332.5,661.5 332.5,654.5 Z" data-index="83"></path></g>
<g><path style="opacity: 1; visibility: visible;" fill="#fcfaf6" d="M 435.5,655.5 C 511.332,656.499 587.332,656.833 663.5,656.5C 663.5,662.5 663.5,668.5 663.5,674.5C 617.997,674.168 572.664,674.501 527.5,675.5C 462.833,675.5 398.167,675.5 333.5,675.5C 333.5,668.833 333.5,662.167 333.5,655.5C 367.5,655.5 401.5,655.5 435.5,655.5 Z" data-index="84"></path></g>
<g><path style="opacity: 0.924; visibility: visible;" fill="#f4f2ee" d="M 435.5,655.5 C 511.833,655.5 588.167,655.5 664.5,655.5C 664.5,662.167 664.5,668.833 664.5,675.5C 618.833,675.5 573.167,675.5 527.5,675.5C 572.664,674.501 617.997,674.168 663.5,674.5C 663.5,668.5 663.5,662.5 663.5,656.5C 587.332,656.833 511.332,656.499 435.5,655.5 Z" data-index="85"></path></g>
<g><path style="opacity: 0.929; visibility: visible;" fill="#aca49f" d="M 664.5,655.5 C 664.833,655.5 665.167,655.5 665.5,655.5C 665.5,662.5 665.5,669.5 665.5,676.5C 663.167,676.5 660.833,676.5 658.5,676.5C 620.167,676.5 581.833,676.5 543.5,676.5C 518.833,676.5 494.167,676.5 469.5,676.5C 430.167,676.5 390.833,676.5 351.5,676.5C 344.978,676.823 338.645,676.49 332.5,675.5C 332.833,675.5 333.167,675.5 333.5,675.5C 398.167,675.5 462.833,675.5 527.5,675.5C 573.167,675.5 618.833,675.5 664.5,675.5C 664.5,668.833 664.5,662.167 664.5,655.5 Z" data-index="86"></path></g>
<g><path style="opacity:0.93" fill="#6a5042" d="M 332.5,654.5 C 332.5,661.5 332.5,668.5 332.5,675.5C 338.645,676.49 344.978,676.823 351.5,676.5C 351.5,676.833 351.5,677.167 351.5,677.5C 345.659,679.398 339.659,679.898 333.5,679C 333,678.5 332.5,678 332,677.5C 331.178,669.655 331.344,661.989 332.5,654.5 Z" data-index="87"></path></g>
<g><path style="opacity:0.945" fill="#40281b" d="M 351.5,677.5 C 351.5,677.167 351.5,676.833 351.5,676.5C 390.833,676.5 430.167,676.5 469.5,676.5C 469.833,677.167 470.167,677.833 470.5,678.5C 430.791,678.822 391.124,678.488 351.5,677.5 Z" data-index="88"></path></g>
<g><path style="opacity:0.942" fill="#64493a" d="M 469.5,676.5 C 494.167,676.5 518.833,676.5 543.5,676.5C 543.5,676.833 543.5,677.167 543.5,677.5C 519.173,678.193 494.84,678.527 470.5,678.5C 470.167,677.833 469.833,677.167 469.5,676.5 Z" data-index="89"></path></g>
<g><path style="opacity:0.92" fill="#493124" d="M 543.5,677.5 C 543.5,677.167 543.5,676.833 543.5,676.5C 581.833,676.5 620.167,676.5 658.5,676.5C 654.594,677.94 650.427,678.606 646,678.5C 611.843,677.553 577.676,677.219 543.5,677.5 Z" data-index="90"></path></g>
<g><path style="opacity:0.994" fill="#4f301e" d="M 288.5,682.5 C 289.789,683.637 290.789,684.97 291.5,686.5C 290.167,689.5 290.167,692.5 291.5,695.5C 285.326,701.262 279.826,700.596 275,693.5C 273.817,689.726 274.651,686.559 277.5,684C 281.06,682.763 284.727,682.263 288.5,682.5 Z" data-index="91"></path></g>
<g><path style="opacity:0.969" fill="#c7c4c0" d="M 288.5,682.5 C 290.582,682.624 292.082,683.624 293,685.5C 293.796,688.039 293.629,690.372 292.5,692.5C 292.795,690.265 292.461,688.265 291.5,686.5C 290.789,684.97 289.789,683.637 288.5,682.5 Z" data-index="92"></path></g>
<g><path style="opacity:0.994" fill="#4f311f" d="M 723.5,687.5 C 723.599,690.237 723.265,692.904 722.5,695.5C 718.716,698.424 714.383,699.257 709.5,698C 708.944,697.617 708.611,697.117 708.5,696.5C 708.815,692.629 708.482,688.962 707.5,685.5C 707.953,684.542 708.619,683.708 709.5,683C 715.436,681.193 720.103,682.693 723.5,687.5 Z" data-index="93"></path></g>
<g><path style="opacity:0.982" fill="#2e1f18" d="M 291.5,686.5 C 292.461,688.265 292.795,690.265 292.5,692.5C 292.443,693.609 292.11,694.609 291.5,695.5C 290.167,692.5 290.167,689.5 291.5,686.5 Z" data-index="94"></path></g>
<g><path style="opacity:0.848" fill="#291911" d="M 707.5,685.5 C 708.482,688.962 708.815,692.629 708.5,696.5C 707.5,696.167 706.833,695.5 706.5,694.5C 706.368,691.43 706.701,688.43 707.5,685.5 Z" data-index="95"></path></g>
<g><path style="opacity:0.957" fill="#686562" d="M 707.5,685.5 C 706.701,688.43 706.368,691.43 706.5,694.5C 705.366,692.034 705.199,689.367 706,686.5C 706.383,685.944 706.883,685.611 707.5,685.5 Z" data-index="96"></path></g>
<g><path style="opacity:0.941" fill="#b5b2af" d="M 723.5,687.5 C 724.156,688.622 724.489,689.955 724.5,691.5C 724.415,693.333 723.748,694.666 722.5,695.5C 723.265,692.904 723.599,690.237 723.5,687.5 Z" data-index="97"></path></g>
<g><path style="opacity:0.834" fill="#815738" d="M 566.5,696.5 C 488.598,697.17 410.598,697.836 332.5,698.5C 410.16,696.503 488.16,695.836 566.5,696.5 Z" data-index="98"></path></g>
<g><path style="opacity: 1;" fill="#b67f51" d="M 566.5,696.5 C 599.487,697.778 632.487,697.778 665.5,696.5C 665.666,703.508 665.5,710.508 665,717.5C 664.617,718.056 664.117,718.389 663.5,718.5C 587.164,718.167 510.83,718.5 434.5,719.5C 431.021,722.552 430.687,725.886 433.5,729.5C 466.162,729.345 498.829,729.678 531.5,730.5C 551.5,730.5 571.5,730.5 591.5,730.5C 615.846,730.727 640.18,730.394 664.5,729.5C 664.5,736.833 664.5,744.167 664.5,751.5C 553.833,751.5 443.167,751.5 332.5,751.5C 332.5,733.833 332.5,716.167 332.5,698.5C 410.598,697.836 488.598,697.17 566.5,696.5 Z" data-index="99"></path></g>
<g><path style="opacity: 1;" fill="#60381d" d="M 663.5,718.5 C 653.659,719.167 643.659,719.833 633.5,720.5C 643.483,721.332 653.483,721.832 663.5,722C 665.124,723.117 666.124,724.617 666.5,726.5C 665.89,734.983 665.223,743.316 664.5,751.5C 664.5,744.167 664.5,736.833 664.5,729.5C 640.18,730.394 615.846,730.727 591.5,730.5C 609.996,729.668 628.662,729.168 647.5,729C 603.167,728.333 558.833,728.333 514.5,729C 520.348,729.173 526.015,729.673 531.5,730.5C 498.829,729.678 466.162,729.345 433.5,729.5C 430.687,725.886 431.021,722.552 434.5,719.5C 510.83,718.5 587.164,718.167 663.5,718.5 Z" data-index="100"></path></g>
<g><path style="opacity:0.89" fill="#502811" d="M 435.5,719.5 C 477.505,719.167 519.505,719.5 561.5,720.5C 540.5,720.833 519.5,721.167 498.5,721.5C 477.156,721.5 456.156,720.833 435.5,719.5 Z" data-index="101"></path></g>
<g><path style="opacity:0.945" fill="#4f2812" d="M 591.5,730.5 C 571.5,730.5 551.5,730.5 531.5,730.5C 526.015,729.673 520.348,729.173 514.5,729C 558.833,728.333 603.167,728.333 647.5,729C 628.662,729.168 609.996,729.668 591.5,730.5 Z" data-index="102"></path></g>
<g><path style="opacity:0.796" fill="#9d9a97" d="M 687.5,674.5 C 687.833,674.5 688.167,674.5 688.5,674.5C 688.5,700.167 688.5,725.833 688.5,751.5C 704.833,751.5 721.167,751.5 737.5,751.5C 720.833,752.833 704.167,752.833 687.5,751.5C 687.5,725.833 687.5,700.167 687.5,674.5 Z" data-index="103"></path></g>
<g><path style="opacity:0.981" fill="#401f11" d="M 258.5,752.5 C 275.167,752.5 291.833,752.5 308.5,752.5C 308.389,753.117 308.056,753.617 307.5,754C 299.333,754.167 291.167,754.333 283,754.5C 274.472,754.498 266.305,753.831 258.5,752.5 Z" data-index="104"></path></g>
<g><path style="opacity:0.985" fill="#251508" d="M 238.5,772.5 C 410.84,773.165 583.173,773.832 755.5,774.5C 585,775.666 414.334,775.833 243.5,775C 241.347,774.901 239.681,774.067 238.5,772.5 Z" data-index="105"></path></g>
<g><path style="opacity: 1;" fill="#221814" d="M 324.5,821.5 C 332.196,821.169 339.862,821.503 347.5,822.5C 348.435,837.397 348.768,852.23 348.5,867C 347.672,891.094 347.172,915.261 347,939.5C 339.253,940.482 331.42,940.815 323.5,940.5C 323.173,900.761 323.506,861.094 324.5,821.5 Z" data-index="106"></path></g>
<g><path style="opacity: 0.237; visibility: visible;" fill="#403129" d="M 624.5,821.5 C 632.5,821.5 640.5,821.5 648.5,821.5C 648.5,861.167 648.5,900.833 648.5,940.5C 640.5,940.5 632.5,940.5 624.5,940.5C 624.5,900.833 624.5,861.167 624.5,821.5 Z" data-index="107"></path></g>
<g><path style="opacity: 1;" fill="#4e2c18" d="M 344.5,934.5 C 344.209,935.649 343.376,936.316 342,936.5C 337.821,937.669 333.654,937.669 329.5,936.5C 329.006,934.974 328.339,933.641 327.5,932.5C 327.5,896.833 327.5,861.167 327.5,825.5C 333.167,825.5 338.833,825.5 344.5,825.5C 344.5,861.833 344.5,898.167 344.5,934.5 Z" data-index="108"></path></g>
<g><path style="opacity: 1;" fill="#241914" d="M 516.5,833.5 C 494.891,831.865 473.224,830.865 451.5,830.5C 450.52,866.136 450.186,901.803 450.5,937.5C 450.5,938.5 450.5,939.5 450.5,940.5C 449.504,940.586 448.671,940.252 448,939.5C 447.173,901.792 447.34,864.125 448.5,826.5C 468.911,825.809 489.245,826.976 509.5,830C 512.069,830.898 514.402,832.065 516.5,833.5 Z" data-index="109"></path></g>
<g><path style="opacity: 1;" fill="#392215" d="M 344.5,934.5 C 344.5,898.167 344.5,861.833 344.5,825.5C 338.833,825.5 333.167,825.5 327.5,825.5C 327.5,861.167 327.5,896.833 327.5,932.5C 326.502,896.671 326.168,860.671 326.5,824.5C 332.833,824.5 339.167,824.5 345.5,824.5C 345.832,861.337 345.498,898.004 344.5,934.5 Z" data-index="110"></path></g>
<g><path style="opacity:0.996" fill="#4e2d18" d="M 627.5,826.5 C 633.167,826.5 638.833,826.5 644.5,826.5C 644.5,860.5 644.5,894.5 644.5,928.5C 644.5,931.5 644.5,934.5 644.5,937.5C 638.833,937.5 633.167,937.5 627.5,937.5C 627.5,900.5 627.5,863.5 627.5,826.5 Z" data-index="111"></path></g>
<g><path style="opacity:0.896" fill="#483023" d="M 627.5,826.5 C 633.31,825.51 639.31,825.177 645.5,825.5C 645.832,860.004 645.498,894.337 644.5,928.5C 644.5,894.5 644.5,860.5 644.5,826.5C 638.833,826.5 633.167,826.5 627.5,826.5 Z" data-index="112"></path></g>
<g><path style="opacity:0.994" fill="#432716" d="M 61.5,830.5 C 49.1667,830.5 36.8333,830.5 24.5,830.5C 24.5,865.833 24.5,901.167 24.5,936.5C 40.8333,936.5 57.1667,936.5 73.5,936.5C 57.0084,937.497 40.3417,937.83 23.5,937.5C 23.5,901.5 23.5,865.5 23.5,829.5C 36.3443,829.171 49.011,829.505 61.5,830.5 Z" data-index="113"></path></g>
<g><path style="opacity: 1;" fill="#4d2c17" d="M 61.5,830.5 C 69.7648,831.879 78.0981,832.546 86.5,832.5C 91.4983,833.663 94.8316,836.663 96.5,841.5C 95.8761,841.917 95.5427,842.584 95.5,843.5C 96,845.5 96.5,847.5 97,849.5C 97.2468,856.361 97.4135,863.028 97.5,869.5C 95.8333,874.5 92.5,877.833 87.5,879.5C 86.0813,878.549 84.4147,878.216 82.5,878.5C 82.2907,880.714 83.124,882.381 85,883.5C 89.0811,885.423 93.2477,887.09 97.5,888.5C 98.5,888.833 99.1667,889.5 99.5,890.5C 101.446,896.344 102.779,902.344 103.5,908.5C 102.498,913.842 101.498,919.175 100.5,924.5C 98.883,927.784 96.5497,930.451 93.5,932.5C 91.7116,931.378 89.7116,931.211 87.5,932C 83.2674,934.8 78.6008,936.3 73.5,936.5C 57.1667,936.5 40.8333,936.5 24.5,936.5C 24.5,901.167 24.5,865.833 24.5,830.5C 36.8333,830.5 49.1667,830.5 61.5,830.5 Z M 65.5,849.5 C 69.4908,849.621 72.6575,851.287 75,854.5C 75.5772,858.888 75.2439,863.221 74,867.5C 72.871,869.141 71.371,870.141 69.5,870.5C 61.7868,872.129 54.1201,873.462 46.5,874.5C 45.8333,874.5 45.5,874.167 45.5,873.5C 45.1688,865.14 45.5021,856.807 46.5,848.5C 52.7734,849.46 59.1067,849.793 65.5,849.5 Z M 45.5,893.5 C 55.2717,893.092 64.9384,893.758 74.5,895.5C 76.1667,898.167 77.8333,900.833 79.5,903.5C 79.7359,906.609 79.4025,909.609 78.5,912.5C 77.8897,914.434 76.8897,916.101 75.5,917.5C 65.5429,920.209 55.5429,920.875 45.5,919.5C 45.5,910.833 45.5,902.167 45.5,893.5 Z" data-index="114"></path></g>
<g><path style="opacity: 1;" fill="#4c2b17" d="M 516.5,833.5 C 520.26,834.926 522.593,837.593 523.5,841.5C 522.353,844.289 522.853,846.956 525,849.5C 525.167,851.833 525.333,854.167 525.5,856.5C 523.968,862.435 522.635,868.435 521.5,874.5C 519.384,876.729 517.051,878.729 514.5,880.5C 520.798,883.799 525.798,888.465 529.5,894.5C 528.978,899.272 529.311,904.105 530.5,909C 529.394,914.92 528.061,920.753 526.5,926.5C 522.584,932.953 516.917,936.62 509.5,937.5C 490.029,937.417 470.362,937.417 450.5,937.5C 450.186,901.803 450.52,866.136 451.5,830.5C 473.224,830.865 494.891,831.865 516.5,833.5 Z M 471.5,849.5 C 481.227,849.647 490.893,850.314 500.5,851.5C 500.733,853.062 501.4,854.395 502.5,855.5C 501.979,859.481 501.646,863.481 501.5,867.5C 500.167,868.5 498.833,869.5 497.5,870.5C 496.317,871.504 494.984,872.338 493.5,873C 486.508,873.5 479.508,873.666 472.5,873.5C 472.824,866.646 472.491,859.979 471.5,853.5C 471.5,852.167 471.5,850.833 471.5,849.5 Z M 471.5,894.5 C 481.838,894.716 492.171,895.049 502.5,895.5C 509.157,903.786 508.49,911.62 500.5,919C 499.207,919.49 497.873,919.657 496.5,919.5C 488.445,919.23 480.445,919.563 472.5,920.5C 472.804,919.85 473.137,919.183 473.5,918.5C 472.678,910.865 472.011,903.199 471.5,895.5C 471.5,895.167 471.5,894.833 471.5,894.5 Z" data-index="115"></path></g>
<g><path style="opacity: 1;" fill="#241a14" d="M 86.5,832.5 C 78.0981,832.546 69.7648,831.879 61.5,830.5C 49.011,829.505 36.3443,829.171 23.5,829.5C 23.5,865.5 23.5,901.5 23.5,937.5C 23.5,938.5 23.5,939.5 23.5,940.5C 22.2502,940.423 21.4169,939.756 21,938.5C 20.3333,901.833 20.3333,865.167 21,828.5C 21.5,828 22,827.5 22.5,827C 40.5219,826.212 58.5219,826.545 76.5,828C 79.8587,829.612 83.192,831.112 86.5,832.5 Z" data-index="116"></path></g>
<g><path style="opacity:0.774" fill="#391f10" d="M 230.5,839.5 C 230.5,845.833 230.5,852.167 230.5,858.5C 229.51,852.69 229.177,846.69 229.5,840.5C 223.833,840.5 218.167,840.5 212.5,840.5C 212.823,846.69 212.49,852.69 211.5,858.5C 211.5,852.167 211.5,845.833 211.5,839.5C 217.833,839.5 224.167,839.5 230.5,839.5 Z" data-index="117"></path></g>
<g><path style="opacity: 1;" fill="#4d2c17" d="M 272.5,839.5 C 278.833,839.5 285.167,839.5 291.5,839.5C 291.675,846.268 292.342,852.268 293.5,857.5C 293.833,857.5 294.167,857.5 294.5,857.5C 294.62,858.586 295.287,859.253 296.5,859.5C 300.138,860.182 303.805,860.682 307.5,861C 311.534,865.219 311.201,869.219 306.5,873C 302.167,873.333 297.833,873.667 293.5,874C 293,874.5 292.5,875 292,875.5C 291.333,889.5 291.333,903.5 292,917.5C 296.454,922.948 302.287,925.115 309.5,924C 310,924.5 310.5,925 311,925.5C 311.499,929.821 311.666,934.154 311.5,938.5C 300.752,940.096 290.086,939.762 279.5,937.5C 276.039,935.525 273.873,932.525 273,928.5C 273.156,911.137 272.322,894.137 270.5,877.5C 269.653,876.034 268.32,875.2 266.5,875C 263.854,874.503 261.187,874.336 258.5,874.5C 258.275,869.752 258.775,865.085 260,860.5C 263.037,859.291 266.204,858.457 269.5,858C 270.056,857.617 270.389,857.117 270.5,856.5C 271.805,854.603 272.471,852.269 272.5,849.5C 272.497,846.975 272.163,844.641 271.5,842.5C 271.263,841.209 271.596,840.209 272.5,839.5 Z" data-index="118"></path></g>
<g><path style="opacity: 1;" fill="#4d2c17" d="M 230.5,858.5 C 231.391,859.11 232.391,859.443 233.5,859.5C 238.305,860.487 243.305,860.821 248.5,860.5C 248.5,864.833 248.5,869.167 248.5,873.5C 244.4,873.237 240.4,873.57 236.5,874.5C 234.738,874.357 233.071,874.691 231.5,875.5C 230.334,889.154 230.167,902.821 231,916.5C 231.793,919.535 233.626,921.701 236.5,923C 241.823,923.499 247.156,923.666 252.5,923.5C 252.666,927.514 252.499,931.514 252,935.5C 249.696,937.068 247.196,938.235 244.5,939C 236.017,940.011 227.684,939.344 219.5,937C 216.366,934.568 214.366,931.402 213.5,927.5C 212.904,910.015 212.237,892.681 211.5,875.5C 211.389,874.883 211.056,874.383 210.5,874C 199.034,875.555 195.701,871.222 200.5,861C 204.421,860.893 208.087,860.06 211.5,858.5C 212.49,852.69 212.823,846.69 212.5,840.5C 218.167,840.5 223.833,840.5 229.5,840.5C 229.177,846.69 229.51,852.69 230.5,858.5 Z" data-index="119"></path></g>
<g><path style="opacity:0.401" fill="#261108" d="M 230.5,839.5 C 231.167,839.5 231.833,839.5 232.5,839.5C 233.49,845.31 233.823,851.31 233.5,857.5C 233.5,858.167 233.5,858.833 233.5,859.5C 232.391,859.443 231.391,859.11 230.5,858.5C 230.5,852.167 230.5,845.833 230.5,839.5 Z" data-index="120"></path></g>
<g><path style="opacity:0.272" fill="#241814" d="M 523.5,841.5 C 531.348,852.834 530.682,863.834 521.5,874.5C 522.635,868.435 523.968,862.435 525.5,856.5C 525.333,854.167 525.167,851.833 525,849.5C 522.853,846.956 522.353,844.289 523.5,841.5 Z" data-index="121"></path></g>
<g><path style="opacity: 1;" fill="#1a0602" d="M 500.5,851.5 C 490.893,850.314 481.227,849.647 471.5,849.5C 471.881,848.069 472.881,847.236 474.5,847C 482.646,846.009 490.646,846.676 498.5,849C 499.756,849.417 500.423,850.25 500.5,851.5 Z" data-index="122"></path></g>
<g><path style="opacity: 0.421; visibility: visible;" fill="#231813" d="M 96.5,841.5 C 99.8342,845.855 101.168,850.855 100.5,856.5C 100.333,859.167 100.167,861.833 100,864.5C 99.6264,866.491 98.793,868.158 97.5,869.5C 97.4135,863.028 97.2468,856.361 97,849.5C 96.5,847.5 96,845.5 95.5,843.5C 95.5427,842.584 95.8761,841.917 96.5,841.5 Z" data-index="123"></path></g>
<g><path style="opacity:0.177" fill="#23140b" d="M 271.5,842.5 C 272.163,844.641 272.497,846.975 272.5,849.5C 272.471,852.269 271.805,854.603 270.5,856.5C 270.226,851.737 270.559,847.07 271.5,842.5 Z" data-index="124"></path></g>
<g><path style="opacity:0.133" fill="#110907" d="M 293.5,857.5 C 292.342,852.268 291.675,846.268 291.5,839.5C 285.167,839.5 278.833,839.5 272.5,839.5C 272.611,838.883 272.944,838.383 273.5,838C 278.705,837.759 283.872,837.259 289,836.5C 290.892,836.777 292.225,837.777 293,839.5C 293.499,845.491 293.666,851.491 293.5,857.5 Z" data-index="125"></path></g>
<g><path style="opacity:0.247" fill="#0a0402" d="M 471.5,853.5 C 472.491,859.979 472.824,866.646 472.5,873.5C 479.508,873.666 486.508,873.5 493.5,873C 494.984,872.338 496.317,871.504 497.5,870.5C 496.26,872.988 494.26,874.821 491.5,876C 485.5,876.667 479.5,876.667 473.5,876C 472.667,875.167 471.833,874.333 471,873.5C 470.179,866.654 470.346,859.987 471.5,853.5 Z" data-index="126"></path></g>
<g><path style="opacity:0.518" fill="#231814" d="M 167.5,858.5 C 155.118,859.005 142.784,860.338 130.5,862.5C 139.39,855.964 149.39,853.797 160.5,856C 163.104,856.39 165.438,857.224 167.5,858.5 Z" data-index="127"></path></g>
<g><path style="opacity:0.369" fill="#221814" d="M 415.5,858.5 C 406.06,859.235 396.56,859.902 387,860.5C 385.319,860.392 384.152,859.725 383.5,858.5C 388.102,856.134 393.102,855.134 398.5,855.5C 404.494,855.368 410.161,856.368 415.5,858.5 Z" data-index="128"></path></g>
<g><path style="opacity: 1;" fill="#190e0b" d="M 597.5,861.5 C 585.886,859.836 574.219,859.336 562.5,860C 558.057,860.528 553.723,861.528 549.5,863C 546.522,869.006 547.188,874.506 551.5,879.5C 549.877,880.779 548.21,882.113 546.5,883.5C 545.054,882.829 544.388,881.662 544.5,880C 545.171,874.855 545.338,869.688 545,864.5C 546.122,862.376 547.622,860.543 549.5,859C 562.361,855.4 575.361,854.734 588.5,857C 592.035,857.663 595.035,859.163 597.5,861.5 Z" data-index="129"></path></g>
<g><path style="opacity: 1;" fill="#201410" d="M 716.5,859.5 C 702.288,859.364 687.955,859.864 673.5,861C 670.898,861.935 669.398,863.768 669,866.5C 668.833,868.833 668.667,871.167 668.5,873.5C 668.529,876.269 669.195,878.603 670.5,880.5C 669.516,883.07 668.349,883.07 667,880.5C 665.092,875.178 665.092,869.845 667,864.5C 669.543,860.138 673.377,857.638 678.5,857C 687.459,855.569 696.459,855.235 705.5,856C 709.491,856.498 713.158,857.665 716.5,859.5 Z" data-index="130"></path></g>
<g><path style="opacity:0.261" fill="#251914" d="M 804.5,858.5 C 796.067,859.139 787.734,859.806 779.5,860.5C 777.901,860.768 776.568,860.434 775.5,859.5C 780.087,856.394 785.254,855.061 791,855.5C 795.942,855.11 800.442,856.11 804.5,858.5 Z" data-index="131"></path></g>
<g><path style="opacity:0.391" fill="#231814" d="M 884.5,857.5 C 874.493,859.115 864.16,860.448 853.5,861.5C 852.274,861.48 851.274,861.147 850.5,860.5C 853.715,858.144 857.381,856.644 861.5,856C 869.405,855.082 877.072,855.582 884.5,857.5 Z" data-index="132"></path></g>
<g><path style="opacity:0.442" fill="#231914" d="M 955.5,857.5 C 951.217,858.827 946.551,859.493 941.5,859.5C 936.421,859.475 931.421,859.142 926.5,858.5C 931.271,856.115 936.437,855.115 942,855.5C 946.758,855.366 951.258,856.032 955.5,857.5 Z" data-index="133"></path></g>
<g><path style="opacity:0.179" fill="#0a0402" d="M 233.5,857.5 C 238.897,857.215 244.23,857.549 249.5,858.5C 250.833,864.5 250.833,870.5 249.5,876.5C 244.181,877.725 238.848,877.725 233.5,876.5C 234.5,875.833 235.5,875.167 236.5,874.5C 240.4,873.57 244.4,873.237 248.5,873.5C 248.5,869.167 248.5,864.833 248.5,860.5C 243.305,860.821 238.305,860.487 233.5,859.5C 233.5,858.833 233.5,858.167 233.5,857.5 Z" data-index="134"></path></g>
<g><path style="opacity:0.185" fill="#030100" d="M 768.5,863.5 C 768.44,864.043 768.107,864.376 767.5,864.5C 766.5,863.167 765.5,861.833 764.5,860.5C 759.014,859.185 753.68,859.185 748.5,860.5C 747.502,886.661 747.169,912.995 747.5,939.5C 746.502,912.338 746.169,885.005 746.5,857.5C 753.833,857.5 761.167,857.5 768.5,857.5C 768.5,859.5 768.5,861.5 768.5,863.5 Z" data-index="135"></path></g>
<g><path style="opacity: 1;" fill="#4d2b17" d="M 167.5,858.5 C 171.229,858.576 174.562,859.743 177.5,862C 182.377,865.376 186.377,869.543 189.5,874.5C 188.876,874.917 188.543,875.584 188.5,876.5C 192.758,888.493 193.424,900.659 190.5,913C 190.508,914.707 190.842,916.207 191.5,917.5C 190.286,920.93 188.786,924.264 187,927.5C 182.904,931.436 178.404,934.77 173.5,937.5C 167.586,936.69 161.586,937.19 155.5,939C 149.175,939.5 142.842,939.666 136.5,939.5C 132.506,938.457 128.839,936.624 125.5,934C 123.536,932.549 122.203,930.716 121.5,928.5C 120.762,922.787 118.929,917.454 116,912.5C 113.472,899.34 114.972,886.674 120.5,874.5C 120.457,873.584 120.124,872.917 119.5,872.5C 121.913,867.752 125.58,864.419 130.5,862.5C 142.784,860.338 155.118,859.005 167.5,858.5 Z M 147.5,876.5 C 152.214,876.353 156.881,876.686 161.5,877.5C 163.191,878.864 164.858,880.197 166.5,881.5C 169.132,892.872 169.132,904.206 166.5,915.5C 158.914,923.918 150.748,924.585 142,917.5C 140.878,915.593 140.045,913.593 139.5,911.5C 139.5,903.167 139.5,894.833 139.5,886.5C 140.773,881.905 143.439,878.572 147.5,876.5 Z" data-index="136"></path></g>
<g><path style="opacity:0.407" fill="#1a0f0b" d="M 502.5,855.5 C 504.922,856.692 505.922,858.692 505.5,861.5C 506.099,864.886 504.766,866.886 501.5,867.5C 501.646,863.481 501.979,859.481 502.5,855.5 Z" data-index="137"></path></g>
<g><path style="opacity: 1; visibility: visible;" fill="#4d2b17" d="M 383.5,858.5 C 384.152,859.725 385.319,860.392 387,860.5C 396.56,859.902 406.06,859.235 415.5,858.5C 422.595,861.926 427.595,867.259 430.5,874.5C 431.389,882.83 431.889,891.164 432,899.5C 431.167,900.333 430.333,901.167 429.5,902C 414.167,902.333 398.833,902.667 383.5,903C 379.784,906.542 379.618,910.375 383,914.5C 383.816,915.823 384.983,916.489 386.5,916.5C 387.5,916.833 388.167,917.5 388.5,918.5C 388.281,919.675 388.614,920.675 389.5,921.5C 399.361,926.336 409.361,926.669 419.5,922.5C 419.5,921.167 419.5,919.833 419.5,918.5C 419.833,918.5 420.167,918.5 420.5,918.5C 422.928,920.043 425.594,921.043 428.5,921.5C 431.707,925.091 432.207,929.091 430,933.5C 429.184,934.823 428.017,935.489 426.5,935.5C 420.751,936.187 415.084,937.353 409.5,939C 400.163,939.333 390.83,939.167 381.5,938.5C 373.978,935.441 368.145,930.441 364,923.5C 363.047,920.568 362.547,917.568 362.5,914.5C 361.242,900.261 362.909,886.428 367.5,873C 367.43,872.235 367.097,871.735 366.5,871.5C 370.769,865.218 376.436,860.884 383.5,858.5 Z" data-index="138"></path></g>
<g><path style="opacity:0.974" fill="#4d2b17" d="M 955.5,857.5 C 969.634,862.41 976.968,872.41 977.5,887.5C 976.555,892.405 976.221,897.405 976.5,902.5C 960.83,902.333 945.163,902.5 929.5,903C 925.244,904.321 923.91,906.987 925.5,911C 926.448,911.483 927.448,911.649 928.5,911.5C 930.482,915.146 933.149,918.146 936.5,920.5C 936.756,922.776 938.09,923.943 940.5,924C 944.5,924.667 948.5,924.667 952.5,924C 953.737,923.768 954.737,923.268 955.5,922.5C 958.607,921.447 961.607,920.114 964.5,918.5C 966.451,919.641 968.451,919.641 970.5,918.5C 971.338,918.842 971.672,919.508 971.5,920.5C 971.933,924.946 972.933,929.279 974.5,933.5C 972.337,935.083 970.004,936.416 967.5,937.5C 966.903,936.861 966.07,936.528 965,936.5C 958.425,938.149 951.758,939.149 945,939.5C 937.01,939.002 929.177,937.668 921.5,935.5C 914.521,932.183 909.521,926.85 906.5,919.5C 907.167,919.5 907.5,919.167 907.5,918.5C 908.518,915.623 908.351,912.623 907,909.5C 906.5,902.508 906.334,895.508 906.5,888.5C 907.923,884.061 909.256,879.561 910.5,875C 910.472,873.93 910.139,873.097 909.5,872.5C 913.397,865.596 919.064,860.929 926.5,858.5C 931.421,859.142 936.421,859.475 941.5,859.5C 946.551,859.493 951.217,858.827 955.5,857.5 Z M 954.5,887.5 C 945.498,887.786 936.498,888.119 927.5,888.5C 927.993,886.194 928.326,883.861 928.5,881.5C 932.914,876.316 938.58,874.482 945.5,876C 950.933,877.933 953.933,881.766 954.5,887.5 Z" data-index="139"></path></g>
<g><path style="opacity: 1;" fill="#4c2b17" d="M 597.5,861.5 C 601.319,863.469 603.986,866.469 605.5,870.5C 604.844,871.622 604.511,872.955 604.5,874.5C 606.883,895.117 607.049,915.783 605,936.5C 601.589,937.293 598.089,937.793 594.5,938C 593.244,938.417 592.577,939.25 592.5,940.5C 587.969,941.114 585.803,939.114 586,934.5C 583.522,936.82 580.689,938.486 577.5,939.5C 569.038,938.213 560.705,938.213 552.5,939.5C 549.011,938.687 546.344,936.687 544.5,933.5C 543.042,928.066 541.708,922.566 540.5,917C 541.266,911.772 542.266,906.605 543.5,901.5C 547.024,896.899 551.691,894.066 557.5,893C 567.081,891.214 576.747,890.214 586.5,890C 585.64,885.416 583.64,881.416 580.5,878C 576.166,877.1 571.832,876.266 567.5,875.5C 562.32,873.547 557.987,874.547 554.5,878.5C 553.791,879.404 552.791,879.737 551.5,879.5C 547.188,874.506 546.522,869.006 549.5,863C 553.723,861.528 558.057,860.528 562.5,860C 574.219,859.336 585.886,859.836 597.5,861.5 Z M 586.5,906.5 C 585.92,910.142 585.42,913.809 585,917.5C 583.961,918.71 582.794,919.71 581.5,920.5C 576.833,921.167 572.167,921.833 567.5,922.5C 566.542,922.047 565.708,921.381 565,920.5C 564.501,916.848 564.335,913.182 564.5,909.5C 571.595,907.073 578.928,906.073 586.5,906.5 Z" data-index="140"></path></g>
<g><path style="opacity: 1;" fill="#4c2a17" d="M 716.5,859.5 C 718.805,860.989 721.138,862.489 723.5,864C 724.823,864.816 725.489,865.983 725.5,867.5C 725.211,870.649 725.711,873.649 727,876.5C 727.5,897.831 727.667,919.164 727.5,940.5C 721.445,940.662 715.445,940.162 709.5,939C 708.773,937.601 708.273,936.101 708,934.5C 705.931,936.085 703.764,937.419 701.5,938.5C 700.903,937.861 700.07,937.528 699,937.5C 691.117,937.746 683.617,938.746 676.5,940.5C 669.635,938.962 664.968,934.962 662.5,928.5C 662.256,919.631 662.922,910.631 664.5,901.5C 665.29,900.206 666.29,899.039 667.5,898C 671.286,896.607 674.952,894.941 678.5,893C 688.152,891.922 697.819,890.922 707.5,890C 706.913,886.334 705.746,882.834 704,879.5C 702.591,878.219 701.091,877.219 699.5,876.5C 697.273,873.639 694.273,872.305 690.5,872.5C 686.106,873.012 681.772,873.846 677.5,875C 675.561,875.908 674.561,877.408 674.5,879.5C 673.167,879.833 671.833,880.167 670.5,880.5C 669.195,878.603 668.529,876.269 668.5,873.5C 668.667,871.167 668.833,868.833 669,866.5C 669.398,863.768 670.898,861.935 673.5,861C 687.955,859.864 702.288,859.364 716.5,859.5 Z M 706.5,906.5 C 707.694,913.678 705.361,919.011 699.5,922.5C 696.167,922.5 692.833,922.5 689.5,922.5C 685.648,921.478 683.982,918.978 684.5,915C 684.334,911.798 685.667,909.631 688.5,908.5C 694.516,907.884 700.516,907.217 706.5,906.5 Z" data-index="141"></path></g>
<g><path style="opacity: 1;" fill="#4c2b17" d="M 768.5,863.5 C 770.698,861.902 773.031,860.569 775.5,859.5C 776.568,860.434 777.901,860.768 779.5,860.5C 788.68,860.568 797.68,860.568 806.5,860.5C 808.194,862.194 809.86,863.86 811.5,865.5C 813.723,872.338 815.223,879.338 816,886.5C 816.169,900.006 816.669,913.34 817.5,926.5C 817.505,930.534 817.838,934.534 818.5,938.5C 815.572,939.82 812.239,940.486 808.5,940.5C 804.982,940.498 801.649,940.165 798.5,939.5C 799.124,939.083 799.457,938.416 799.5,937.5C 798.861,920.848 798.194,904.181 797.5,887.5C 796.859,886.007 795.859,885.007 794.5,884.5C 793.248,882.999 792.248,881.332 791.5,879.5C 787.626,873.476 782.293,871.976 775.5,875C 774.663,876.011 774.33,877.178 774.5,878.5C 772.833,879.833 771.167,881.167 769.5,882.5C 768.85,882.804 768.183,883.137 767.5,883.5C 766.5,901.488 766.167,919.488 766.5,937.5C 760.5,937.5 754.5,937.5 748.5,937.5C 748.5,911.833 748.5,886.167 748.5,860.5C 753.68,859.185 759.014,859.185 764.5,860.5C 765.5,861.833 766.5,863.167 767.5,864.5C 768.107,864.376 768.44,864.043 768.5,863.5 Z" data-index="142"></path></g>
<g><path style="opacity:0.984" fill="#4c2b17" d="M 884.5,857.5 C 892.368,859.199 898.035,863.699 901.5,871C 901.138,872.225 900.638,873.391 900,874.5C 896.658,877.226 893.324,879.892 890,882.5C 887.456,880.733 884.956,879.066 882.5,877.5C 881.64,875.386 879.973,874.22 877.5,874C 872.4,872.805 867.733,873.638 863.5,876.5C 862.571,877.689 862.238,879.022 862.5,880.5C 861.147,882.183 859.48,883.516 857.5,884.5C 855.112,885.219 853.612,886.885 853,889.5C 852.161,896.567 852.494,903.567 854,910.5C 854.71,911.973 855.876,912.64 857.5,912.5C 862.143,917.156 867.476,920.823 873.5,923.5C 878.974,921.626 884.64,919.292 890.5,916.5C 894.759,917.76 897.759,920.427 899.5,924.5C 898.35,927.049 898.684,929.383 900.5,931.5C 897.01,936.22 892.343,938.886 886.5,939.5C 879.023,939.405 871.356,939.238 863.5,939C 857.852,937.671 852.185,936.504 846.5,935.5C 841.775,933.108 838.442,929.441 836.5,924.5C 837.043,924.44 837.376,924.107 837.5,923.5C 833.606,911.238 832.606,898.738 834.5,886C 834.361,884.699 833.695,883.866 832.5,883.5C 834.455,872.554 840.455,864.887 850.5,860.5C 851.274,861.147 852.274,861.48 853.5,861.5C 864.16,860.448 874.493,859.115 884.5,857.5 Z" data-index="143"></path></g>
<g><path style="opacity:0.772" fill="#241914" d="M 65.5,849.5 C 59.1067,849.793 52.7734,849.46 46.5,848.5C 45.5021,856.807 45.1688,865.14 45.5,873.5C 44.5,873.5 43.5,873.5 42.5,873.5C 42.5,864.833 42.5,856.167 42.5,847.5C 50.5729,846.868 58.2395,847.535 65.5,849.5 Z" data-index="144"></path></g>
<g><path style="opacity:0.498" fill="#1b100c" d="M 69.5,870.5 C 68.7974,872.716 67.4641,874.549 65.5,876C 62.3333,876.167 59.1667,876.333 56,876.5C 52.4242,876.485 49.2575,875.818 46.5,874.5C 54.1201,873.462 61.7868,872.129 69.5,870.5 Z" data-index="145"></path></g>
<g><path style="opacity:0.112" fill="#0f0603" d="M 814.5,866.5 C 817.028,868.89 818.528,871.89 819,875.5C 819.829,896.671 819.663,917.671 818.5,938.5C 817.838,934.534 817.505,930.534 817.5,926.5C 818.212,906.384 817.212,886.384 814.5,866.5 Z" data-index="146"></path></g>
<g><path style="opacity: 1; visibility: visible;" fill="#9e8f87" d="M 402.5,873.5 C 398.833,873.5 395.167,873.5 391.5,873.5C 395.167,870.833 398.833,870.833 402.5,873.5 Z" data-index="147"></path></g>
<g><path style="opacity: 1;" fill="#dbd5d0" d="M 391.5,873.5 C 395.167,873.5 398.833,873.5 402.5,873.5C 404.122,874.122 405.455,875.122 406.5,876.5C 398.772,873.137 391.772,874.137 385.5,879.5C 386.5,876.5 388.5,874.5 391.5,873.5 Z" data-index="148"></path></g>
<g><path style="opacity: 0.205; visibility: visible;" fill="#fbf9f5" d="M 406.5,876.5 C 407.5,877.167 408.5,877.833 409.5,878.5C 410.576,881.734 411.243,885.068 411.5,888.5C 401.833,888.5 392.167,888.5 382.5,888.5C 382.993,886.194 383.326,883.861 383.5,881.5C 384.167,880.833 384.833,880.167 385.5,879.5C 391.772,874.137 398.772,873.137 406.5,876.5 Z" data-index="149"></path></g>
<g><path style="opacity:0.401" fill="#1f120c" d="M 699.5,876.5 C 690.927,875.392 682.594,876.392 674.5,879.5C 674.561,877.408 675.561,875.908 677.5,875C 681.772,873.846 686.106,873.012 690.5,872.5C 694.273,872.305 697.273,873.639 699.5,876.5 Z" data-index="150"></path></g>
<g><path style="opacity:0.67" fill="#271109" d="M 791.5,879.5 C 785.925,878.548 780.259,878.214 774.5,878.5C 774.33,877.178 774.663,876.011 775.5,875C 782.293,871.976 787.626,873.476 791.5,879.5 Z" data-index="151"></path></g>
<g><path style="opacity:0.239" fill="#291309" d="M 882.5,877.5 C 877.156,877.334 871.823,877.501 866.5,878C 865.016,878.662 863.683,879.496 862.5,880.5C 862.238,879.022 862.571,877.689 863.5,876.5C 867.733,873.638 872.4,872.805 877.5,874C 879.973,874.22 881.64,875.386 882.5,877.5 Z" data-index="152"></path></g>
<g><path style="opacity:0.08" fill="#1d110b" d="M 161.5,877.5 C 156.881,876.686 152.214,876.353 147.5,876.5C 149.508,874.073 152.174,873.073 155.5,873.5C 157.167,873.667 158.833,873.833 160.5,874C 161.337,875.011 161.67,876.178 161.5,877.5 Z" data-index="153"></path></g>
<g><path style="opacity:0.122" fill="#1c100b" d="M 567.5,875.5 C 563.368,876.863 559.035,877.863 554.5,878.5C 557.987,874.547 562.32,873.547 567.5,875.5 Z" data-index="154"></path></g>
<g><path style="opacity: 1;" fill="#261008" d="M 430.5,874.5 C 432.103,876.98 433.603,879.646 435,882.5C 435.5,890.159 435.666,897.826 435.5,905.5C 418.476,905.24 401.476,905.573 384.5,906.5C 385.167,909.833 385.833,913.167 386.5,916.5C 384.983,916.489 383.816,915.823 383,914.5C 379.618,910.375 379.784,906.542 383.5,903C 398.833,902.667 414.167,902.333 429.5,902C 430.333,901.167 431.167,900.333 432,899.5C 431.889,891.164 431.389,882.83 430.5,874.5 Z" data-index="155"></path></g>
<g><path style="opacity: 1;" fill="#1d120d" d="M 294.5,857.5 C 300.167,857.5 305.833,857.5 311.5,857.5C 311.5,863.833 311.5,870.167 311.5,876.5C 305.5,876.5 299.5,876.5 293.5,876.5C 293.099,889.552 293.599,902.552 295,915.5C 295.453,917.755 296.786,919.089 299,919.5C 304.511,920.54 309.844,920.54 315,919.5C 315.689,925.882 315.355,932.215 314,938.5C 312.829,939.893 311.329,940.727 309.5,941C 304.922,941.463 300.422,942.296 296,943.5C 290.929,942.594 286.095,941.261 281.5,939.5C 280.833,938.833 280.167,938.167 279.5,937.5C 290.086,939.762 300.752,940.096 311.5,938.5C 311.666,934.154 311.499,929.821 311,925.5C 310.5,925 310,924.5 309.5,924C 302.287,925.115 296.454,922.948 292,917.5C 291.333,903.5 291.333,889.5 292,875.5C 292.5,875 293,874.5 293.5,874C 297.833,873.667 302.167,873.333 306.5,873C 311.201,869.219 311.534,865.219 307.5,861C 303.805,860.682 300.138,860.182 296.5,859.5C 295.287,859.253 294.62,858.586 294.5,857.5 Z" data-index="156"></path></g>
<g><path style="opacity: 1; visibility: visible;" fill="#291209" d="M 366.5,871.5 C 367.097,871.735 367.43,872.235 367.5,873C 362.909,886.428 361.242,900.261 362.5,914.5C 358.719,903.015 358.552,891.348 362,879.5C 363.397,876.646 364.897,873.98 366.5,871.5 Z" data-index="157"></path></g>
<g><path style="opacity:0.314" fill="#170e0b" d="M 729.5,877.5 C 729.788,891.666 730.121,905.833 730.5,920C 730.497,927.201 729.83,934.034 728.5,940.5C 728.169,919.327 728.503,898.327 729.5,877.5 Z" data-index="158"></path></g>
<g><path style="opacity:0.47" fill="#1c100b" d="M 232.5,839.5 C 231.833,839.5 231.167,839.5 230.5,839.5C 224.167,839.5 217.833,839.5 211.5,839.5C 211.5,845.833 211.5,852.167 211.5,858.5C 208.087,860.06 204.421,860.893 200.5,861C 195.701,871.222 199.034,875.555 210.5,874C 211.056,874.383 211.389,874.883 211.5,875.5C 211.333,891.503 211.5,907.503 212,923.5C 212.21,925.058 212.71,926.391 213.5,927.5C 214.366,931.402 216.366,934.568 219.5,937C 227.684,939.344 236.017,940.011 244.5,939C 247.196,938.235 249.696,937.068 252,935.5C 252.499,931.514 252.666,927.514 252.5,923.5C 247.156,923.666 241.823,923.499 236.5,923C 233.626,921.701 231.793,919.535 231,916.5C 230.167,902.821 230.334,889.154 231.5,875.5C 233.071,874.691 234.738,874.357 236.5,874.5C 235.5,875.167 234.5,875.833 233.5,876.5C 233.097,889.885 233.597,903.218 235,916.5C 236.145,919.477 238.312,921.144 241.5,921.5C 245.761,920.314 250.094,919.647 254.5,919.5C 254.88,923.823 255.214,928.156 255.5,932.5C 255.426,935.287 254.76,937.787 253.5,940C 245.827,941.573 238.16,942.573 230.5,943C 226.564,941.672 222.564,940.338 218.5,939C 214.611,936.961 212.111,933.795 211,929.5C 210.633,912.159 210.133,894.826 209.5,877.5C 205.429,877.766 201.429,877.433 197.5,876.5C 196.191,870.278 196.191,864.111 197.5,858C 201.821,857.501 206.154,857.334 210.5,857.5C 210.5,850.833 210.5,844.167 210.5,837.5C 217.508,837.334 224.508,837.5 231.5,838C 232.056,838.383 232.389,838.883 232.5,839.5 Z" data-index="159"></path></g>
<g><path style="opacity:0.324" fill="#251007" d="M 748.5,860.5 C 748.5,886.167 748.5,911.833 748.5,937.5C 754.5,937.5 760.5,937.5 766.5,937.5C 766.167,919.488 766.5,901.488 767.5,883.5C 768.183,883.137 768.85,882.804 769.5,882.5C 770.658,901.83 770.658,921.163 769.5,940.5C 761.981,940.825 754.648,940.492 747.5,939.5C 747.169,912.995 747.502,886.661 748.5,860.5 Z" data-index="160"></path></g>
<g><path style="opacity:0.49" fill="#3a1e10" d="M 87.5,879.5 C 90.8333,882.5 94.1667,885.5 97.5,888.5C 93.2477,887.09 89.0811,885.423 85,883.5C 83.124,882.381 82.2907,880.714 82.5,878.5C 84.4147,878.216 86.0813,878.549 87.5,879.5 Z" data-index="161"></path></g>
<g><path style="opacity:0.277" fill="#110702" d="M 794.5,884.5 C 795.859,885.007 796.859,886.007 797.5,887.5C 798.194,904.181 798.861,920.848 799.5,937.5C 799.457,938.416 799.124,939.083 798.5,939.5C 797.883,939.389 797.383,939.056 797,938.5C 796.932,920.402 796.099,902.402 794.5,884.5 Z" data-index="162"></path></g>
<g><path style="opacity:0.464" fill="#1b0f0b" d="M 119.5,872.5 C 120.124,872.917 120.457,873.584 120.5,874.5C 114.972,886.674 113.472,899.34 116,912.5C 118.929,917.454 120.762,922.787 121.5,928.5C 111.483,915.066 108.983,900.066 114,883.5C 115.879,879.741 117.713,876.075 119.5,872.5 Z" data-index="163"></path></g>
<g><path style="opacity: 1;" fill="#c2bbb6" d="M 409.5,878.5 C 412.075,880.845 413.075,883.845 412.5,887.5C 407.712,888.828 402.546,889.495 397,889.5C 391.454,889.495 386.288,888.828 381.5,887.5C 381.259,885.102 381.926,883.102 383.5,881.5C 383.326,883.861 382.993,886.194 382.5,888.5C 392.167,888.5 401.833,888.5 411.5,888.5C 411.243,885.068 410.576,881.734 409.5,878.5 Z" data-index="164"></path></g>
<g><path style="opacity:0.898" fill="#2f1b11" d="M 725.5,867.5 C 727.915,870.34 729.248,873.673 729.5,877.5C 728.503,898.327 728.169,919.327 728.5,940.5C 728.167,940.5 727.833,940.5 727.5,940.5C 727.667,919.164 727.5,897.831 727,876.5C 725.711,873.649 725.211,870.649 725.5,867.5 Z" data-index="165"></path></g>
<g><path style="opacity:0.663" fill="#281009" d="M 928.5,881.5 C 928.326,883.861 927.993,886.194 927.5,888.5C 936.498,888.119 945.498,887.786 954.5,887.5C 954.5,888.833 954.5,890.167 954.5,891.5C 945.161,891.666 935.827,891.5 926.5,891C 923.53,887.016 924.196,883.849 928.5,881.5 Z" data-index="166"></path></g>
<g><path style="opacity: 1;" fill="#645954" d="M 381.5,887.5 C 386.288,888.828 391.454,889.495 397,889.5C 402.546,889.495 407.712,888.828 412.5,887.5C 413.404,888.209 413.737,889.209 413.5,890.5C 402.5,890.5 391.5,890.5 380.5,890.5C 380.263,889.209 380.596,888.209 381.5,887.5 Z" data-index="167"></path></g>
<g><path style="opacity:0.191" fill="#190f0b" d="M 909.5,872.5 C 910.139,873.097 910.472,873.93 910.5,875C 909.256,879.561 907.923,884.061 906.5,888.5C 905.07,898.42 905.404,908.42 907.5,918.5C 907.5,919.167 907.167,919.5 906.5,919.5C 900.382,903.278 901.382,887.611 909.5,872.5 Z" data-index="168"></path></g>
<g><path style="opacity:0.34" fill="#261008" d="M 74.5,895.5 C 64.9384,893.758 55.2717,893.092 45.5,893.5C 44.8333,893.5 44.1667,893.5 43.5,893.5C 43.9528,892.542 44.6195,891.708 45.5,891C 52.8333,890.333 60.1667,890.333 67.5,891C 70.5469,891.516 72.8802,893.016 74.5,895.5 Z" data-index="169"></path></g>
<g><path style="opacity: 1;" fill="#180e0b" d="M 502.5,895.5 C 492.171,895.049 481.838,894.716 471.5,894.5C 471.5,893.167 471.5,891.833 471.5,890.5C 481.922,890.11 492.255,890.776 502.5,892.5C 502.5,893.5 502.5,894.5 502.5,895.5 Z" data-index="170"></path></g>
<g><path style="opacity:0.448" fill="#271209" d="M 832.5,883.5 C 833.695,883.866 834.361,884.699 834.5,886C 832.606,898.738 833.606,911.238 837.5,923.5C 837.376,924.107 837.043,924.44 836.5,924.5C 833.413,920.421 831.58,915.754 831,910.5C 830.077,901.272 830.577,892.272 832.5,883.5 Z" data-index="171"></path></g>
<g><path style="opacity:0.446" fill="#1d110c" d="M 857.5,884.5 C 854.833,893.833 854.833,903.166 857.5,912.5C 855.876,912.64 854.71,911.973 854,910.5C 852.494,903.567 852.161,896.567 853,889.5C 853.612,886.885 855.112,885.219 857.5,884.5 Z" data-index="172"></path></g>
<g><path style="opacity:0.933" fill="#3e2213" d="M 804.5,858.5 C 808.698,860.026 812.032,862.693 814.5,866.5C 817.212,886.384 818.212,906.384 817.5,926.5C 816.669,913.34 816.169,900.006 816,886.5C 815.223,879.338 813.723,872.338 811.5,865.5C 809.86,863.86 808.194,862.194 806.5,860.5C 797.68,860.568 788.68,860.568 779.5,860.5C 787.734,859.806 796.067,859.139 804.5,858.5 Z" data-index="173"></path></g>
<g><path style="opacity:0.708" fill="#1c100b" d="M 139.5,886.5 C 139.5,894.833 139.5,903.167 139.5,911.5C 136.232,910.135 134.899,907.635 135.5,904C 136.033,899.17 136.533,894.337 137,889.5C 137.377,888.058 138.21,887.058 139.5,886.5 Z" data-index="174"></path></g>
<g><path style="opacity:0.937" fill="#2e1a0f" d="M 211.5,875.5 C 212.237,892.681 212.904,910.015 213.5,927.5C 212.71,926.391 212.21,925.058 212,923.5C 211.5,907.503 211.333,891.503 211.5,875.5 Z" data-index="175"></path></g>
<g><path style="opacity:0.494" fill="#261008" d="M 977.5,887.5 C 978.577,893.312 979.243,899.312 979.5,905.5C 962.497,905.333 945.497,905.5 928.5,906C 927.464,907.776 927.464,909.609 928.5,911.5C 927.448,911.649 926.448,911.483 925.5,911C 923.91,906.987 925.244,904.321 929.5,903C 945.163,902.5 960.83,902.333 976.5,902.5C 976.221,897.405 976.555,892.405 977.5,887.5 Z" data-index="176"></path></g>
<g><path style="opacity:0.172" fill="#1a0f0b" d="M 189.5,874.5 C 196.656,888.559 197.323,902.892 191.5,917.5C 190.842,916.207 190.508,914.707 190.5,913C 193.424,900.659 192.758,888.493 188.5,876.5C 188.543,875.584 188.876,874.917 189.5,874.5 Z" data-index="177"></path></g>
<g><path style="opacity: 1; visibility: visible;" fill="#150904" d="M 270.5,877.5 C 272.322,894.137 273.156,911.137 273,928.5C 273.873,932.525 276.039,935.525 279.5,937.5C 280.167,938.167 280.833,938.833 281.5,939.5C 276.187,937.685 272.687,934.018 271,928.5C 270.5,911.503 270.333,894.503 270.5,877.5 Z" data-index="178"></path></g>
<g><path style="opacity: 1;" fill="#1e120c" d="M 471.5,895.5 C 472.011,903.199 472.678,910.865 473.5,918.5C 473.137,919.183 472.804,919.85 472.5,920.5C 472.5,921.167 472.5,921.833 472.5,922.5C 471.849,921.909 471.182,921.243 470.5,920.5C 469.335,913.189 469.169,905.856 470,898.5C 470.232,897.263 470.732,896.263 471.5,895.5 Z" data-index="179"></path></g>
<g><path style="opacity:0.302" fill="#241814" d="M 586.5,906.5 C 578.928,906.073 571.595,907.073 564.5,909.5C 565.839,907.494 567.506,905.827 569.5,904.5C 575.459,903.586 581.459,903.253 587.5,903.5C 587.737,904.791 587.404,905.791 586.5,906.5 Z" data-index="180"></path></g>
<g><path style="opacity:0.436" fill="#1a0f0b" d="M 706.5,906.5 C 700.516,907.217 694.516,907.884 688.5,908.5C 689.53,905.808 691.53,904.308 694.5,904C 698.5,903.333 702.5,903.333 706.5,904C 707.774,904.977 707.774,905.811 706.5,906.5 Z" data-index="181"></path></g>
<g><path style="opacity:0.824" fill="#311b10" d="M 906.5,888.5 C 906.334,895.508 906.5,902.508 907,909.5C 908.351,912.623 908.518,915.623 907.5,918.5C 905.404,908.42 905.07,898.42 906.5,888.5 Z" data-index="182"></path></g>
<g><path style="opacity:0.33" fill="#190f0c" d="M 79.5,903.5 C 81.9497,903.874 82.9497,905.374 82.5,908C 83.0676,911.263 81.7343,912.763 78.5,912.5C 79.4025,909.609 79.7359,906.609 79.5,903.5 Z" data-index="183"></path></g>
<g><path style="opacity:0.279" fill="#261008" d="M 99.5,890.5 C 106.871,899.438 108.371,909.438 104,920.5C 103.34,922.324 102.173,923.657 100.5,924.5C 101.498,919.175 102.498,913.842 103.5,908.5C 102.779,902.344 101.446,896.344 99.5,890.5 Z" data-index="184"></path></g>
<g><path style="opacity:0.275" fill="#1d110b" d="M 166.5,881.5 C 167.794,882.29 168.961,883.29 170,884.5C 170.667,893.833 170.667,903.167 170,912.5C 169.578,914.426 168.411,915.426 166.5,915.5C 169.132,904.206 169.132,892.872 166.5,881.5 Z" data-index="185"></path></g>
<g><path style="opacity: 1;" fill="#180e0b" d="M 543.5,901.5 C 542.266,906.605 541.266,911.772 540.5,917C 541.708,922.566 543.042,928.066 544.5,933.5C 535.534,923.185 535.201,912.518 543.5,901.5 Z" data-index="186"></path></g>
<g><path style="opacity:0.098" fill="#1b100b" d="M 664.5,901.5 C 662.922,910.631 662.256,919.631 662.5,928.5C 658.168,919.152 658.834,910.152 664.5,901.5 Z" data-index="187"></path></g>
<g><path style="opacity:0.416" fill="#281108" d="M 428.5,921.5 C 425.594,921.043 422.928,920.043 420.5,918.5C 424.804,914.111 427.471,915.111 428.5,921.5 Z" data-index="188"></path></g>
<g><path style="opacity:0.196" fill="#180d0a" d="M 970.5,918.5 C 968.451,919.641 966.451,919.641 964.5,918.5C 965.134,917.053 966.301,916.387 968,916.5C 969.376,916.684 970.209,917.351 970.5,918.5 Z" data-index="189"></path></g>
<g><path style="opacity:0.258" fill="#190f0b" d="M 43.5,893.5 C 44.1667,893.5 44.8333,893.5 45.5,893.5C 45.5,902.167 45.5,910.833 45.5,919.5C 55.5429,920.875 65.5429,920.209 75.5,917.5C 74.3272,919.504 72.6605,921.004 70.5,922C 61.8333,922.667 53.1667,922.667 44.5,922C 44,921.5 43.5,921 43,920.5C 42.176,911.324 42.3427,902.324 43.5,893.5 Z" data-index="190"></path></g>
<g><path style="opacity: 1;" fill="#1a0f0b" d="M 529.5,894.5 C 535.272,905.774 534.272,916.44 526.5,926.5C 528.061,920.753 529.394,914.92 530.5,909C 529.311,904.105 528.978,899.272 529.5,894.5 Z" data-index="191"></path></g>
<g><path style="opacity: 1;" fill="#030100" d="M 496.5,919.5 C 496.586,920.496 496.252,921.329 495.5,922C 487.841,922.5 480.174,922.666 472.5,922.5C 472.5,921.833 472.5,921.167 472.5,920.5C 480.445,919.563 488.445,919.23 496.5,919.5 Z" data-index="192"></path></g>
<g><path style="opacity:0.508" fill="#271008" d="M 581.5,920.5 C 581.084,922.752 579.751,924.252 577.5,925C 574.5,925.667 571.5,925.667 568.5,925C 567.748,924.329 567.414,923.496 567.5,922.5C 572.167,921.833 576.833,921.167 581.5,920.5 Z" data-index="193"></path></g>
<g><path style="opacity:0.399" fill="#190f0b" d="M 689.5,922.5 C 692.833,922.5 696.167,922.5 699.5,922.5C 699.047,923.458 698.381,924.292 697.5,925C 694.854,925.497 692.187,925.664 689.5,925.5C 689.5,924.5 689.5,923.5 689.5,922.5 Z" data-index="194"></path></g>
<g><path style="opacity: 1;" fill="#271108" d="M 388.5,918.5 C 393.52,920.592 398.687,922.259 404,923.5C 409.317,922.256 414.484,920.589 419.5,918.5C 419.5,919.833 419.5,921.167 419.5,922.5C 409.361,926.669 399.361,926.336 389.5,921.5C 388.614,920.675 388.281,919.675 388.5,918.5 Z" data-index="195"></path></g>
<g><path style="opacity:0.418" fill="#230e07" d="M 936.5,920.5 C 940.391,921.806 944.391,922.806 948.5,923.5C 950.818,923.003 953.152,922.67 955.5,922.5C 954.737,923.268 953.737,923.768 952.5,924C 948.5,924.667 944.5,924.667 940.5,924C 938.09,923.943 936.756,922.776 936.5,920.5 Z" data-index="196"></path></g>
<g><path style="opacity:0.427" fill="#1b0f0b" d="M 899.5,924.5 C 900.993,925.312 901.66,926.645 901.5,928.5C 901.48,929.726 901.147,930.726 900.5,931.5C 898.684,929.383 898.35,927.049 899.5,924.5 Z" data-index="197"></path></g>
<g><path style="opacity:0.398" fill="#1b100c" d="M 971.5,920.5 C 973.441,923.459 975.441,926.459 977.5,929.5C 976.965,931.261 975.965,932.594 974.5,933.5C 972.933,929.279 971.933,924.946 971.5,920.5 Z" data-index="198"></path></g>
<g><path style="opacity:0.425" fill="#19100d" d="M 605.5,870.5 C 606.594,872.359 607.427,874.359 608,876.5C 609.361,897.843 609.528,919.177 608.5,940.5C 603.167,940.5 597.833,940.5 592.5,940.5C 592.577,939.25 593.244,938.417 594.5,938C 598.089,937.793 601.589,937.293 605,936.5C 607.049,915.783 606.883,895.117 604.5,874.5C 604.511,872.955 604.844,871.622 605.5,870.5 Z" data-index="199"></path></g>
<g><path style="opacity:0.465" fill="#281108" d="M 93.5,932.5 C 89.1407,936.844 83.8073,939.344 77.5,940C 59.5031,940.5 41.5031,940.667 23.5,940.5C 23.5,939.5 23.5,938.5 23.5,937.5C 40.3417,937.83 57.0084,937.497 73.5,936.5C 78.6008,936.3 83.2674,934.8 87.5,932C 89.7116,931.211 91.7116,931.378 93.5,932.5 Z" data-index="200"></path></g>
<g><path style="opacity:0.304" fill="#1a0f0b" d="M 173.5,937.5 C 167.418,940.559 160.918,942.559 154,943.5C 148.03,942.317 142.197,940.983 136.5,939.5C 142.842,939.666 149.175,939.5 155.5,939C 161.586,937.19 167.586,936.69 173.5,937.5 Z" data-index="201"></path></g>
<g><path style="opacity:0.692" fill="#261108" d="M 509.5,937.5 C 507.438,938.776 505.104,939.61 502.5,940C 485.17,940.5 467.837,940.667 450.5,940.5C 450.5,939.5 450.5,938.5 450.5,937.5C 470.362,937.417 490.029,937.417 509.5,937.5 Z" data-index="202"></path></g>
<g><path style="opacity: 1;" fill="#1a0f0b" d="M 426.5,935.5 C 419.475,940.218 411.642,942.885 403,943.5C 395.605,942.412 388.439,940.746 381.5,938.5C 390.83,939.167 400.163,939.333 409.5,939C 415.084,937.353 420.751,936.187 426.5,935.5 Z" data-index="203"></path></g>
<g><path style="opacity:0.443" fill="#180e0a" d="M 577.5,939.5 C 573.14,940.883 568.64,942.216 564,943.5C 560.083,942.073 556.249,940.739 552.5,939.5C 560.705,938.213 569.038,938.213 577.5,939.5 Z" data-index="204"></path></g>
<g><path style="opacity:0.39" fill="#1c100b" d="M 701.5,938.5 C 693.47,943.52 685.137,944.187 676.5,940.5C 683.617,938.746 691.117,937.746 699,937.5C 700.07,937.528 700.903,937.861 701.5,938.5 Z" data-index="205"></path></g>
<g><path style="opacity:0.24" fill="#1c100b" d="M 921.5,935.5 C 929.177,937.668 937.01,939.002 945,939.5C 951.758,939.149 958.425,938.149 965,936.5C 966.07,936.528 966.903,936.861 967.5,937.5C 960.713,940.563 953.547,942.563 946,943.5C 938.125,942.39 930.458,940.39 923,937.5C 921.97,937.164 921.47,936.497 921.5,935.5 Z" data-index="206"></path></g>
<g><path style="opacity:0.224" fill="#1c100b" d="M 846.5,935.5 C 852.185,936.504 857.852,937.671 863.5,939C 871.356,939.238 879.023,939.405 886.5,939.5C 880.014,943.022 873.014,944.189 865.5,943C 859.849,941.339 854.182,939.672 848.5,938C 847.619,937.292 846.953,936.458 846.5,935.5 Z" data-index="207"></path></g>
</svg>